<svg xmlns="http://www.w3.org/2000/svg" xmlns:xlink="http://www.w3.org/1999/xlink" width="1920" height="2289" viewBox="0 0 1920 2289"><defs><linearGradient id="a" x1="0.5" x2="0.5" y2="1" gradientUnits="objectBoundingBox"><stop offset="0" stop-color="#f4f8f8"/><stop offset="0.217" stop-color="#feffff"/><stop offset="1" stop-color="#fff"/></linearGradient><clipPath id="c"><rect width="1920" height="2289"/></clipPath></defs><g id="b" clip-path="url(#c)"><rect width="1920" height="2289" fill="#f4f8fb"/><path d="M3545.569,896.6a89.256,89.256,0,0,1,36.865,170.5v365.516a84.839,84.839,0,0,1,35.846,32.09,77.973,77.973,0,0,1,0,81.933l-19.524,31.958a19.323,19.323,0,0,1-16.524,9.008l-3.326.03,1.358-74.921c.323-17.682-13.565-32.475-31.734-34.634l-3.952-.274c-18.726-.3-34.381,12.818-36.669,29.973l-.284,3.739-1.388,76.127-2.15-.041a19.328,19.328,0,0,1-16.527-9.008l-19.535-31.958a78.031,78.031,0,0,1,0-81.933,85.39,85.39,0,0,1,41.615-34.613V1067.518A89.254,89.254,0,0,1,3545.569,896.6Zm0,44.615-38.6,22.312v44.614l38.6,22.3,38.617-22.3V963.527Z" transform="translate(1541.441 4306.292) rotate(-133)" fill="#a18fff" opacity="0.04"/><g transform="matrix(0.951, -0.309, 0.309, 0.951, -3850.939, 1622.144)" opacity="0.04"><path d="M4049.4,977.489v26.99a26.991,26.991,0,0,1-26.99,26.988H3320.686a26.991,26.991,0,0,1-26.99-26.988v-26.99a26.991,26.991,0,0,1,26.99-26.989h701.725A26.991,26.991,0,0,1,4049.4,977.489Z" transform="translate(0.005 99.157)" fill="#a18fff"/><path d="M4049.4,954.9a26.991,26.991,0,0,1-26.99,26.988H3320.686A26.991,26.991,0,0,1,3293.7,954.9H4049.4Z" transform="translate(0.005 148.736)" fill="#a18fff"/><path d="M3425.27,941.7v242.9L3408.93,1217.3a27,27,0,0,1-48.284,0L3344.3,1184.6h0V941.7Z" transform="translate(570.15 0.001)" fill="#a18fff"/><rect width="80.968" height="26.989" transform="translate(3914.455 941.7)" fill="#a18fff"/></g><rect width="1920" height="327" transform="translate(0 1656)" fill="#7000ff"/><g transform="matrix(0.914, -0.407, 0.407, 0.914, -2512.618, 2394.01)"><path d="M461.966,63.7a10.746,10.746,0,0,1-3.7,9.428L442.948,85.442a38.506,38.506,0,0,1-42.015,4.494A45.525,45.525,0,0,1,380.86,69.367L83.406,100.4A45.431,45.431,0,0,1,68.62,121.237a38.521,38.521,0,0,1-42.107,3.689l-17.35-9.136a10.636,10.636,0,0,1-5.418-8.535l-.159-1.8,38.562-2.636c9.095-.615,16.046-8.8,16.294-18.724l-.057-2.152c-.719-10.145-8.213-18.036-17.13-18.5l-1.93.014L.133,66.132.044,64.961a10.67,10.67,0,0,1,3.85-9.34l15.5-12a38.516,38.516,0,0,1,42.1-3.689,45.9,45.9,0,0,1,19.75,20.965L378.08,29.913a45.6,45.6,0,0,1,14.463-21.17,38.526,38.526,0,0,1,42.03-4.494l17.484,8.8a10.6,10.6,0,0,1,5.546,8.432l.191,1.8-38.5,3.382c-9.091.791-15.9,9.106-16,19.047l.088,2.152c.9,10.132,8.493,17.876,17.424,18.168l1.934-.058,39.129-3.426Z" transform="translate(2440.242 724.653) rotate(-31)" fill="#7e7e7e" opacity="0.15"/></g><rect width="1920" height="305" transform="translate(1 1984)" fill="url(#a)"/></g></svg>