<svg xmlns="http://www.w3.org/2000/svg" width="19.842" height="19.842" viewBox="0 0 19.842 19.842">
  <g id="order-food" transform="translate(-30.179 -106.849)">
    <path id="Path_4" data-name="Path 4" d="M46.627,118.506a.842.842,0,0,0-1.053-.116l-1.86,1.184a1.262,1.262,0,0,1-1.58-.173l-4.964-4.964a1.262,1.262,0,0,1-.173-1.58L38.18,111a.842.842,0,0,0-.116-1.053l-2.475-2.475a2.117,2.117,0,0,0-3.27.34l-1.333,2.044a4.974,4.974,0,0,0,.649,6.235l9.146,9.146a4.975,4.975,0,0,0,6.235.649l2.044-1.333a2.117,2.117,0,0,0,.34-3.27ZM33.961,107.7a1.286,1.286,0,0,1,.133-.007,1.264,1.264,0,0,1,.9.372l2.475,2.475-.574.9-3.523-3.523A1.267,1.267,0,0,1,33.961,107.7Zm4.714,13.473.607-.59.886.91-.607.59Zm2.066,2.124-.886-.91.607-.59.886.91Zm8.426-.39a1.265,1.265,0,0,1-.308.706l-3.75-3.925.919-.585L48.8,121.88a1.265,1.265,0,0,1,.365,1.03Z" fill="#7000ff"/>
  </g>
</svg>
