<svg xmlns="http://www.w3.org/2000/svg" width="376.645" height="487.005" viewBox="0 0 376.645 487.005">
  <g id="Car-Jack" transform="matrix(0.848, -0.53, 0.53, 0.848, -4195.817, 2190.288)" opacity="0.04">
    <path id="Rectangle" d="M4301.6,443.4H4185V887.135h116.6Z" transform="translate(511.413 39.035)" fill="#a18fff"/>
    <path id="Rectangle-2" data-name="Rectangle" d="M4325.627,447.456,4316.8,452.5a23.318,23.318,0,0,1-23.154,0l-17.656-10.091a23.3,23.3,0,0,0-23.145,0L4235.185,452.5a23.308,23.308,0,0,1-23.149,0l-8.831-5.045A13.648,13.648,0,0,0,4182.8,459.3v23.139a23.32,23.32,0,0,0,23.317,23.32h116.6a23.324,23.324,0,0,0,23.322-23.32V459.3a13.636,13.636,0,0,0-20.411-11.84Z" transform="translate(490.291 0)" fill="#a18fff"/>
  </g>
</svg>
