<svg xmlns="http://www.w3.org/2000/svg" xmlns:xlink="http://www.w3.org/1999/xlink" viewBox="0 0 899.06 406.36"><defs><style>.cls-1,.cls-26,.cls-31{fill:#fff;}.cls-2,.cls-47,.cls-49,.cls-5,.cls-56,.cls-58{fill:none;}.cls-3{clip-path:url(#clip-path);}.cls-4{fill:url(#linear-gradient);}.cls-5{stroke:#fff;stroke-miterlimit:10;stroke-width:5px;}.cls-6{fill:#1a170f;}.cls-7{fill:#858585;}.cls-8{fill:#e1e1f0;}.cls-9{fill:#ffd200;}.cls-10{fill:#aeafbe;}.cls-11{fill:#f36155;}.cls-12{fill:#c54b41;}.cls-13{fill:#bbbbca;}.cls-14{fill:#484646;}.cls-15{fill:#31302d;}.cls-16{fill:#53524d;}.cls-17{mask:url(#mask);}.cls-18{mask:url(#mask-2);}.cls-19{fill:#c9cadf;}.cls-20{fill:#7000ff;}.cls-21{mask:url(#mask-5);}.cls-22{mask:url(#mask-6);}.cls-23{mask:url(#mask-8);}.cls-24{fill:#686bbb;opacity:0.32;}.cls-24,.cls-26{isolation:isolate;}.cls-25{fill-opacity:0.09;}.cls-26{opacity:0.44;}.cls-27{fill:#ffa13e;}.cls-28{fill:#dcf0fe;}.cls-29{mask:url(#mask-15);}.cls-30{fill:#ff8300;}.cls-31{fill-opacity:0.24;}.cls-32{mask:url(#mask-18);}.cls-33{fill:#52526b;}.cls-34{mask:url(#mask-21);}.cls-35{fill:#e1dbfe;}.cls-36{mask:url(#mask-22);}.cls-37{mask:url(#mask-23);}.cls-38{mask:url(#mask-24);}.cls-39{mask:url(#mask-25);}.cls-40{mask:url(#mask-26);}.cls-41{fill:#6f6f71;}.cls-42{mask:url(#mask-27);}.cls-43{mask:url(#mask-28);}.cls-44{fill-opacity:0.25;}.cls-45{fill:#e3e4ff;}.cls-46{fill:#ff9251;}.cls-47{stroke:#c36a34;stroke-linecap:square;}.cls-47,.cls-49,.cls-56,.cls-58{stroke-linejoin:round;stroke-width:1.21px;}.cls-48{fill:#faad82;}.cls-49{stroke:#dc7436;}.cls-49,.cls-56,.cls-58{stroke-linecap:round;}.cls-50{mask:url(#mask-29);}.cls-51{mask:url(#mask-30);}.cls-52{fill:#ededed;}.cls-53{fill-opacity:0.14;}.cls-54{mask:url(#mask-33);}.cls-55{mask:url(#mask-34);}.cls-56{stroke:#ef8a8a;}.cls-57{fill:#794c4c;}.cls-58{stroke:#ae6f6f;}.cls-59{fill:#c6627e;}.cls-60{fill:#3893d1;}.cls-61{fill:#42acf5;}</style><clipPath id="clip-path" transform="translate(19.01)"><path class="cls-2" d="M756.65,406.33c24.59-15,33.3-31.14,57.89-46.18,17.7-34.15,34.1-72.73,33.58-100.55-.39-41.93-55.86-83.47-91.79-131a3.55,3.55,0,0,1-.23-.31,79.85,79.85,0,0,1-15.35-37.74c-2-16-5.75-33.83-12.93-49.81-13-29-50.34-43.41-122.61-40.35-39,1.66-67.61,19.15-98.17,36.5A241.72,241.72,0,0,1,338.88,63.68c-23.82-4.89-25.88-6.41-49.22-10.61C271.12,49.74,121,25,43.84,119.89c-6.18,7.6-63.84,81-36.55,166.2,21.82,68.19,89.37,117.07,169.9,120.24Z"/></clipPath><linearGradient id="linear-gradient" x1="414.57" y1="406.33" x2="414.57" gradientUnits="userSpaceOnUse"><stop offset="0" stop-color="#d7e7ff"/><stop offset="1" stop-color="#f0eeff"/></linearGradient><mask id="mask" x="773.66" y="302.95" width="48.4" height="83.6" maskUnits="userSpaceOnUse"><g transform="translate(19.01)"><g id="mask-397"><ellipse id="path-396" class="cls-1" cx="776.65" cy="344.75" rx="22" ry="41.8"/></g></g></mask><mask id="mask-2" x="769.26" y="302.95" width="48.4" height="83.6" maskUnits="userSpaceOnUse"><g transform="translate(19.01)"><g id="mask-397-2" data-name="mask-397"><ellipse id="path-396-2" data-name="path-396" class="cls-1" cx="776.65" cy="344.75" rx="22" ry="41.8"/></g></g></mask><mask id="mask-5" x="221.46" y="100.55" width="657.86" height="272.8" maskUnits="userSpaceOnUse"><g transform="translate(19.01)"><g id="mask-399"><path id="path-398" class="cls-1" d="M455.34,100.55H765.07A46.2,46.2,0,0,1,806.83,127L840,197a99.1,99.1,0,0,1,9.51,42.35v65.19a10.82,10.82,0,0,1,10.82,10.81V347a22,22,0,0,1-22,22H816.91a2.21,2.21,0,0,1-2.2-2.2,2.08,2.08,0,0,1,.11-.66q7.44-23.59-2-60.1c-.28-1.07.62-1.6,2.68-1.6l-.19-5.12a40.12,40.12,0,0,0-40.1-38.61,41.91,41.91,0,0,0-41.77,38.51L727.91,367a2.21,2.21,0,0,1-2.15,2q-177.15,3.33-177.91,2.16c-.76-1.17,4.8-22.59,2.6-36.4a1.5,1.5,0,0,1,1.39-1.94l-1.24-35.73a40,40,0,0,0-40-38.62A41.83,41.83,0,0,0,468.92,297l-5.58,69.94a2.19,2.19,0,0,1-2.19,2H217.85a15.41,15.41,0,0,1-15.4-15.4V343.06a15.06,15.06,0,0,1,8.8-13.69h0V275.46a48.4,48.4,0,0,1,33.82-46.15l87.25-27.56h0l22.51-41.43A114.39,114.39,0,0,1,455.34,100.55Z"/></g></g></mask><mask id="mask-6" x="221.46" y="100.55" width="657.86" height="270.9" maskUnits="userSpaceOnUse"><g transform="translate(19.01)"><g id="mask-399-2" data-name="mask-399"><path id="path-398-2" data-name="path-398" class="cls-1" d="M455.34,100.55H765.07A46.2,46.2,0,0,1,806.83,127L840,197a99.1,99.1,0,0,1,9.51,42.35v65.19a10.82,10.82,0,0,1,10.82,10.81V347a22,22,0,0,1-22,22H816.91a2.21,2.21,0,0,1-2.2-2.2,2.08,2.08,0,0,1,.11-.66q7.44-23.59-2-60.1c-.28-1.07.62-1.6,2.68-1.6l-.19-5.12a40.12,40.12,0,0,0-40.1-38.61,41.91,41.91,0,0,0-41.77,38.51L727.91,367a2.21,2.21,0,0,1-2.15,2q-177.15,3.33-177.91,2.16c-.76-1.17,4.8-22.59,2.6-36.4a1.5,1.5,0,0,1,1.39-1.94l-1.24-35.73a40,40,0,0,0-40-38.62A41.83,41.83,0,0,0,468.92,297l-5.58,69.94a2.19,2.19,0,0,1-2.19,2H217.85a15.41,15.41,0,0,1-15.4-15.4V343.06a15.06,15.06,0,0,1,8.8-13.69h0V275.46a48.4,48.4,0,0,1,33.82-46.15l87.25-27.56h0l22.51-41.43A114.39,114.39,0,0,1,455.34,100.55Z"/></g></g></mask><mask id="mask-8" x="221.46" y="100.55" width="666.66" height="270.9" maskUnits="userSpaceOnUse"><g transform="translate(19.01)"><g id="mask-399-4" data-name="mask-399"><path id="path-398-4" data-name="path-398" class="cls-1" d="M455.34,100.55H765.07A46.2,46.2,0,0,1,806.83,127L840,197a99.1,99.1,0,0,1,9.51,42.35v65.19a10.82,10.82,0,0,1,10.82,10.81V347a22,22,0,0,1-22,22H816.91a2.21,2.21,0,0,1-2.2-2.2,2.08,2.08,0,0,1,.11-.66q7.44-23.59-2-60.1c-.28-1.07.62-1.6,2.68-1.6l-.19-5.12a40.12,40.12,0,0,0-40.1-38.61,41.91,41.91,0,0,0-41.77,38.51L727.91,367a2.21,2.21,0,0,1-2.15,2q-177.15,3.33-177.91,2.16c-.76-1.17,4.8-22.59,2.6-36.4a1.5,1.5,0,0,1,1.39-1.94l-1.24-35.73a40,40,0,0,0-40-38.62A41.83,41.83,0,0,0,468.92,297l-5.58,69.94a2.19,2.19,0,0,1-2.19,2H217.85a15.41,15.41,0,0,1-15.4-15.4V343.06a15.06,15.06,0,0,1,8.8-13.69h0V275.46a48.4,48.4,0,0,1,33.82-46.15l87.25-27.56h0l22.51-41.43A114.39,114.39,0,0,1,455.34,100.55Z"/></g></g></mask><mask id="mask-15" x="230.26" y="294.15" width="35.64" height="19.8" maskUnits="userSpaceOnUse"><g transform="translate(19.01)"><g id="mask-401"><path id="path-400" class="cls-1" d="M221.15,294.15h9.9a9.9,9.9,0,0,1,0,19.8h-9.9a9.9,9.9,0,1,1,0-19.8Z"/></g></g></mask><mask id="mask-18" x="221.46" y="100.55" width="677.6" height="270.9" maskUnits="userSpaceOnUse"><g transform="translate(19.01)"><g id="mask-399-13" data-name="mask-399"><path id="path-398-13" data-name="path-398" class="cls-1" d="M455.34,100.55H765.07A46.2,46.2,0,0,1,806.83,127L840,197a99.1,99.1,0,0,1,9.51,42.35v65.19a10.82,10.82,0,0,1,10.82,10.81V347a22,22,0,0,1-22,22H816.91a2.21,2.21,0,0,1-2.2-2.2,2.08,2.08,0,0,1,.11-.66q7.44-23.59-2-60.1c-.28-1.07.62-1.6,2.68-1.6l-.19-5.12a40.12,40.12,0,0,0-40.1-38.61,41.91,41.91,0,0,0-41.77,38.51L727.91,367a2.21,2.21,0,0,1-2.15,2q-177.15,3.33-177.91,2.16c-.76-1.17,4.8-22.59,2.6-36.4a1.5,1.5,0,0,1,1.39-1.94l-1.24-35.73a40,40,0,0,0-40-38.62A41.83,41.83,0,0,0,468.92,297l-5.58,69.94a2.19,2.19,0,0,1-2.19,2H217.85a15.41,15.41,0,0,1-15.4-15.4V343.06a15.06,15.06,0,0,1,8.8-13.69h0V275.46a48.4,48.4,0,0,1,33.82-46.15l87.25-27.56h0l22.51-41.43A114.39,114.39,0,0,1,455.34,100.55Z"/></g></g></mask><mask id="mask-21" x="206.13" y="100.55" width="673.2" height="270.9" maskUnits="userSpaceOnUse"><g transform="translate(19.01)"><g id="mask-399-16" data-name="mask-399"><path id="path-398-16" data-name="path-398" class="cls-1" d="M455.34,100.55H765.07A46.2,46.2,0,0,1,806.83,127L840,197a99.1,99.1,0,0,1,9.51,42.35v65.19a10.82,10.82,0,0,1,10.82,10.81V347a22,22,0,0,1-22,22H816.91a2.21,2.21,0,0,1-2.2-2.2,2.08,2.08,0,0,1,.11-.66q7.44-23.59-2-60.1c-.28-1.07.62-1.6,2.68-1.6l-.19-5.12a40.12,40.12,0,0,0-40.1-38.61,41.91,41.91,0,0,0-41.77,38.51L727.91,367a2.21,2.21,0,0,1-2.15,2q-177.15,3.33-177.91,2.16c-.76-1.17,4.8-22.59,2.6-36.4a1.5,1.5,0,0,1,1.39-1.94l-1.24-35.73a40,40,0,0,0-40-38.62A41.83,41.83,0,0,0,468.92,297l-5.58,69.94a2.19,2.19,0,0,1-2.19,2H217.85a15.41,15.41,0,0,1-15.4-15.4V343.06a15.06,15.06,0,0,1,8.8-13.69h0V275.46a48.4,48.4,0,0,1,33.82-46.15l87.25-27.56h0l22.51-41.43A114.39,114.39,0,0,1,455.34,100.55Z"/></g></g></mask><mask id="mask-22" x="673.75" y="115.95" width="93.87" height="90.78" maskUnits="userSpaceOnUse"><g transform="translate(19.01)"><g id="mask-403"><path id="path-402" class="cls-1" d="M659.14,116h73.58c9.65,28.83,13.59,57.61,15.89,86.37H668.67C667.38,177.47,665.38,148.17,659.14,116Z"/></g></g></mask><mask id="mask-23" x="755.15" y="115.95" width="70.44" height="90.78" maskUnits="userSpaceOnUse"><g transform="translate(19.01)"><g id="mask-405"><path id="path-404" class="cls-1" d="M740.54,116h12.91a39.59,39.59,0,0,1,38.07,28.71l14.89,52.05a4.4,4.4,0,0,1-3,5.44,4.16,4.16,0,0,1-1.21.17H756.67A341.74,341.74,0,0,0,740.54,116Z"/></g></g></mask><mask id="mask-24" x="549.32" y="115.95" width="128.93" height="90.78" maskUnits="userSpaceOnUse"><g transform="translate(19.01)"><g id="mask-407"><path id="path-406" class="cls-1" d="M638.61,116H650c5.85,27.63,8.48,59.62,9.24,86.37H536.9a2.2,2.2,0,0,1-2.2-2.2,2.14,2.14,0,0,1,.35-1.17l25.16-39.81A92.75,92.75,0,0,1,638.61,116Z"/></g></g></mask><mask id="mask-25" x="355.03" y="113.75" width="235.34" height="89.61" maskUnits="userSpaceOnUse"><g transform="translate(19.01)"><g id="mask-409"><path id="path-408" class="cls-1" d="M443.51,113.75H571.37c-36.9,14.1-56.52,56.32-68.62,85.21H347a2.21,2.21,0,0,1-2.2-2.2,2.23,2.23,0,0,1,.31-1.13l23.4-39.28A87.28,87.28,0,0,1,443.51,113.75Z"/></g></g></mask><mask id="mask-26" x="361.58" y="114.64" width="229.07" height="90.2" maskUnits="userSpaceOnUse"><g transform="translate(19.01)"><g id="mask-409-2" data-name="mask-409"><path id="path-408-2" data-name="path-408" class="cls-1" d="M443.24,114.64H571.63c-37,14.11-56.75,56.32-68.9,85.21H346.35a2.2,2.2,0,0,1-1.9-3.32L368,157.25A87.72,87.72,0,0,1,443.24,114.64Z"/></g></g></mask><mask id="mask-27" x="384.33" y="291.95" width="39.6" height="22" maskUnits="userSpaceOnUse"><g transform="translate(19.01)"><g id="mask-411"><path id="path-410" class="cls-1" d="M376.32,292h11a11,11,0,0,1,0,22h-11a11,11,0,0,1,0-22Z"/></g></g></mask><mask id="mask-28" x="242.71" y="340.35" width="185.55" height="43.25" maskUnits="userSpaceOnUse"><g transform="translate(19.01)"><g id="mask-413"><path id="path-412" class="cls-1" d="M228.1,340.35H366.69a4.4,4.4,0,0,1,4.11,2.82L380.72,369h28.53l-22.42,8.64A35.18,35.18,0,0,1,374.17,380H351.94a2.24,2.24,0,0,1-1.2-.35l-5.17-3.35a4.38,4.38,0,0,0-2.38-.7h-7.61a4.21,4.21,0,0,0-3.71,2.2l-.58,1.05a2.19,2.19,0,0,1-1.93,1.15H271.05a2.2,2.2,0,0,1-1.52-.61l-2.7-2.57a4.33,4.33,0,0,0-3-1.22h-7.15a4.23,4.23,0,0,0-3.71,2.2l-.57,1.05a2.21,2.21,0,0,1-1.93,1.15h-7.91a12.12,12.12,0,0,1-11.68-8.88l-7-25.14a4.4,4.4,0,0,1,3.07-5.42A4.23,4.23,0,0,1,228.1,340.35Z"/></g></g></mask><mask id="mask-29" x="598.84" y="302.93" width="48.4" height="83.6" maskUnits="userSpaceOnUse"><g transform="translate(19.01)"><g id="mask-415"><ellipse id="path-414" class="cls-1" cx="601.83" cy="344.73" rx="22" ry="41.8"/></g></g></mask><mask id="mask-30" x="594.44" y="302.93" width="48.4" height="83.6" maskUnits="userSpaceOnUse"><g transform="translate(19.01)"><g id="mask-415-2" data-name="mask-415"><ellipse id="path-414-2" data-name="path-414" class="cls-1" cx="601.83" cy="344.73" rx="22" ry="41.8"/></g></g></mask><mask id="mask-33" x="697.35" y="263.98" width="20.49" height="27.21" maskUnits="userSpaceOnUse"><g transform="translate(19.01)"><g id="mask-417"><polygon id="path-416" class="cls-1" points="678.34 267.41 693.19 263.98 698.82 280.43 685.89 291.19 678.34 267.41"/></g></g></mask><mask id="mask-34" x="681.21" y="246.97" width="31.63" height="33.6" maskUnits="userSpaceOnUse"><g transform="translate(19.01)"><g id="mask-419"><path id="path-418" class="cls-1" d="M662.2,253.34,689.79,247l3.67,15.92a14.16,14.16,0,0,1-10.61,17l-1.66.38a12.44,12.44,0,0,1-14.93-9.33h0c-3.94.91-2.49-2.76-1.55-6.72Z"/></g></g></mask></defs><g id="Layer_2" data-name="Layer 2"><g id="Layer_3" data-name="Layer 3"><g id="Layer_2-2" data-name="Layer 2"><g class="cls-3"><path class="cls-4" d="M754.6,406.33l70.07-41.91c18.1-34.15,24-77,23.45-104.82-.4-41.93-57.11-83.47-93.85-131l-.24-.31a79,79,0,0,1-15.69-37.74c-2.06-16-5.87-33.83-13.21-49.81C711.81,11.75,673.65-2.66,599.76.4c-39.87,1.66-69.13,19.15-100.37,36.5A251.91,251.91,0,0,1,327.47,63.68c-24.36-4.89-26.46-6.41-50.33-10.61C258.19,49.74,104.7,25,25.81,119.89c-6.31,7.6-65.27,81-37.37,166.2,22.31,68.19,91.37,117.07,173.71,120.24Z" transform="translate(19.01)"/><rect class="cls-1" x="565.41" y="47.89" width="209.56" height="23.74"/><rect class="cls-5" x="559" y="41.43" width="223.87" height="36.68"/><rect class="cls-1" x="295.29" y="52.62" width="43.91" height="14.81"/><rect class="cls-1" x="273.33" y="70.23" width="43.91" height="14.81"/><rect class="cls-1" x="104.31" y="180.02" width="43.91" height="14.81"/><rect class="cls-1" x="126.26" y="197.64" width="43.91" height="14.81"/><rect class="cls-1" x="192.1" y="289.09" width="43.91" height="14.81"/><rect class="cls-1" x="239.67" y="289.09" width="43.91" height="14.81"/><rect class="cls-1" x="214.06" y="306.71" width="43.91" height="14.81"/><rect class="cls-1" x="346.5" y="147.31" width="43.91" height="14.81"/><rect class="cls-1" x="394.07" y="147.31" width="43.91" height="14.81"/><rect class="cls-1" x="368.46" y="164.92" width="43.91" height="14.81"/></g></g><g id="Repairing-Tire"><g id="Group-13"><polygon id="Rectangle" class="cls-6" points="481.13 252.35 573.53 252.35 573.53 366.75 481.13 366.75 481.13 252.35"/><rect id="Rectangle-2" data-name="Rectangle" class="cls-7" x="472.26" y="331.55" width="59.4" height="8.8"/><g id="Group-123"><polygon id="Rectangle-3" data-name="Rectangle" class="cls-8" points="496.13 291.95 504.67 289.82 513.19 323.97 504.65 326.1 496.13 291.95"/><path id="Rectangle-4" data-name="Rectangle" class="cls-9" d="M468.3,268.15l14.11-3.53L492,303a2.2,2.2,0,0,1-1.6,2.67l-9.85,2.46a2.19,2.19,0,0,1-2.66-1.6h0l-9.58-38.42Z" transform="translate(19.01)"/></g><g id="Group-49"><polygon id="Rectangle-5" data-name="Rectangle" class="cls-10" points="498.66 343.13 487.66 343.13 487.66 378.33 498.66 378.33 498.66 343.13"/><path id="Rectangle-6" data-name="Rectangle" class="cls-11" d="M479.93,339.83l-.84.47a2.18,2.18,0,0,1-2.18,0l-1.67-.95a2.18,2.18,0,0,0-2.18,0l-1.67.95a2.18,2.18,0,0,1-2.18,0l-.83-.47a1.28,1.28,0,0,0-1.76.48,1.27,1.27,0,0,0-.17.63v2.19a2.21,2.21,0,0,0,2.2,2.2h11a2.2,2.2,0,0,0,2.2-2.2v-2.19a1.28,1.28,0,0,0-1.29-1.28A1.27,1.27,0,0,0,479.93,339.83Z" transform="translate(19.01)"/><rect id="Rectangle-7" data-name="Rectangle" class="cls-11" x="483.26" y="366.45" width="19.8" height="35.49"/><rect id="Rectangle-8" data-name="Rectangle" class="cls-12" x="481.06" y="393.13" width="24.2" height="8.8"/><path id="Rectangle-9" data-name="Rectangle" class="cls-12" d="M459.85,382.13h-8.8a2.21,2.21,0,0,0-2.2,2.2v15.4h13.2v-15.4A2.2,2.2,0,0,0,459.85,382.13Z" transform="translate(19.01)"/><path id="Rectangle-10" data-name="Rectangle" class="cls-11" d="M488.45,397.53h-41.8a2.21,2.21,0,0,0-2.2,2.2v4.4a2.2,2.2,0,0,0,2.2,2.2h41.8a2.19,2.19,0,0,0,2.2-2.2v-4.4A2.2,2.2,0,0,0,488.45,397.53Z" transform="translate(19.01)"/><path id="Rectangle-11" data-name="Rectangle" class="cls-10" d="M459.37,377.31l-99.66,17.57a2.2,2.2,0,0,0-1.79,2.54l.4,2.33a2.2,2.2,0,0,0,2.54,1.8h0L460.53,384a2.2,2.2,0,0,0,1.79-2.54l-.4-2.34a2.21,2.21,0,0,0-2.54-1.8Z" transform="translate(19.01)"/><rect id="Rectangle-12" data-name="Rectangle" class="cls-11" x="444.45" y="376.47" width="17.6" height="11" transform="translate(-40.43 84.51) rotate(-10)"/></g><g id="Group-39"><ellipse id="Oval" class="cls-13" cx="522.86" cy="335.95" rx="17.6" ry="33"/><ellipse id="Oval-2" data-name="Oval" class="cls-8" cx="527.26" cy="335.95" rx="17.6" ry="33"/><ellipse id="Oval-3" data-name="Oval" class="cls-14" cx="528.36" cy="335.95" rx="7.7" ry="13.2"/><ellipse id="Oval-4" data-name="Oval" class="cls-13" cx="530.56" cy="335.95" rx="7.7" ry="13.2"/><g id="Group-6"><path id="Rectangle-13" data-name="Rectangle" class="cls-12" d="M488.45,316.15h0V358a8.8,8.8,0,0,1-8.8-8.8V325A8.8,8.8,0,0,1,488.45,316.15Z" transform="translate(19.01)"/><polygon id="Rectangle-14" data-name="Rectangle" class="cls-12" points="507.46 316.15 520.66 316.15 514.06 337.05 520.66 357.95 507.46 357.95 507.46 316.15"/><path id="Path" class="cls-11" d="M501.65,316.15v8.3c-2.6,2.12-4.4,6.67-4.4,11.93s1.8,9.81,4.4,11.93V358h-6.6a8.8,8.8,0,0,1-8.8-8.8V325a8.8,8.8,0,0,1,8.8-8.8Z" transform="translate(19.01)"/></g></g><g id="Group-11"><ellipse id="Oval-5" data-name="Oval" class="cls-15" cx="300.66" cy="343.65" rx="37.4" ry="62.7"/><rect id="Rectangle-15" data-name="Rectangle" class="cls-15" x="298.46" y="280.95" width="33" height="125.4"/><ellipse id="Oval-6" data-name="Oval" class="cls-16" cx="329.26" cy="343.65" rx="37.4" ry="62.7"/><g id="Oval-7" data-name="Oval"><ellipse id="path-394" class="cls-15" cx="331.46" cy="344.75" rx="22" ry="41.8"/></g></g><polygon id="Rectangle-16" data-name="Rectangle" class="cls-6" points="745.13 252.35 837.53 252.35 837.53 366.75 745.13 366.75 745.13 252.35"/><g id="Group-11-2" data-name="Group-11"><ellipse id="Oval-8" data-name="Oval" class="cls-15" cx="764.86" cy="343.65" rx="37.4" ry="62.7"/><rect id="Rectangle-17" data-name="Rectangle" class="cls-15" x="762.66" y="280.95" width="33" height="125.4"/><ellipse id="Oval-9" data-name="Oval" class="cls-16" cx="793.46" cy="343.65" rx="37.4" ry="62.7"/><g id="Group-10"><g id="Oval-10" data-name="Oval"><ellipse id="path-396-5" data-name="path-396" class="cls-8" cx="795.66" cy="344.75" rx="22" ry="41.8"/></g><g class="cls-17"><ellipse id="Oval-11" data-name="Oval" class="cls-6" cx="813.26" cy="322.75" rx="8.8" ry="11"/></g><g class="cls-18"><ellipse id="Oval-12" data-name="Oval" class="cls-6" cx="778.06" cy="322.75" rx="8.8" ry="11"/></g><g class="cls-17"><ellipse id="Oval-13" data-name="Oval" class="cls-6" cx="813.26" cy="368.95" rx="8.8" ry="11"/></g><g class="cls-18"><ellipse id="Oval-14" data-name="Oval" class="cls-6" cx="778.06" cy="368.95" rx="8.8" ry="11"/></g></g></g><path id="Rectangle-18" data-name="Rectangle" class="cls-19" d="M327.85,175.35h24.63a4.39,4.39,0,0,1,4.38,3.94l1.6,15.34h0l6.32,9a4.4,4.4,0,0,1-3.6,6.93H327.85a8.8,8.8,0,0,1-8.8-8.8v-17.6A8.8,8.8,0,0,1,327.85,175.35Z" transform="translate(19.01)"/><g id="Group-7"><g id="Rectangle-19" data-name="Rectangle"><path id="path-398-17" data-name="path-398" class="cls-20" d="M455.34,100.55H765.07A46.2,46.2,0,0,1,806.83,127L840,197a99.1,99.1,0,0,1,9.51,42.35v65.19a10.82,10.82,0,0,1,10.82,10.81V347a22,22,0,0,1-22,22H816.91a2.21,2.21,0,0,1-2.2-2.2,2.08,2.08,0,0,1,.11-.66q7.44-23.59-2-60.1c-.28-1.07.62-1.6,2.68-1.6l-.19-5.12a40.12,40.12,0,0,0-40.1-38.61,41.91,41.91,0,0,0-41.77,38.51L727.91,367a2.21,2.21,0,0,1-2.15,2q-177.15,3.33-177.91,2.16c-.76-1.17,4.8-22.59,2.6-36.4a1.5,1.5,0,0,1,1.39-1.94l-1.24-35.73a40,40,0,0,0-40-38.62A41.83,41.83,0,0,0,468.92,297l-5.58,69.94a2.19,2.19,0,0,1-2.19,2H217.85a15.41,15.41,0,0,1-15.4-15.4V343.06a15.06,15.06,0,0,1,8.8-13.69h0V275.46a48.4,48.4,0,0,1,33.82-46.15l87.25-27.56h0l22.51-41.43A114.39,114.39,0,0,1,455.34,100.55Z" transform="translate(19.01)"/></g><g class="cls-21"><path id="Rectangle-20" data-name="Rectangle" class="cls-14" d="M202.52,332.84l27.24-9.27a8.86,8.86,0,0,0,4-2.79l2.9-3.58a8.79,8.79,0,0,1,6.83-3.25H348.36a8.78,8.78,0,0,1,6.23,2.59l4.33,4.34a8.79,8.79,0,0,0,4.44,2.41l45.89,9.55h0l61.67-10.09v50.6H202.52Z" transform="translate(19.01)"/></g><g class="cls-22"><path id="Rectangle-21" data-name="Rectangle" class="cls-1" d="M211.32,245.75h37.4l-6.6,37.4-31.58-3.72a6.59,6.59,0,0,1-5.82-6.55V252.35A6.59,6.59,0,0,1,211.32,245.75Z" transform="translate(19.01)"/></g><g class="cls-22"><path id="Rectangle-22" data-name="Rectangle" class="cls-1" d="M354.32,245.75h65a6.59,6.59,0,0,1,6.6,6.6,6,6,0,0,1-.07,1l-3,20.6a6.59,6.59,0,0,1-6.15,5.63l-62.34,3.62h0Z" transform="translate(19.01)"/></g><g class="cls-23"><path id="Rectangle-23" data-name="Rectangle" class="cls-24" d="M636.58,100.55h146a46.2,46.2,0,0,1,43.29,30.06Q859.58,221,858.3,273.78a10.82,10.82,0,0,1,10.82,10.81v66.76a17.6,17.6,0,0,1-17.6,17.6H424.65a15.41,15.41,0,0,1-15.4-15.4V273.19a48.39,48.39,0,0,1,31-45.15l68.1-26.29h0l20-36.83A123.21,123.21,0,0,1,636.58,100.55Z" transform="translate(19.01)"/></g><g class="cls-22"><polygon id="Rectangle-24" data-name="Rectangle" class="cls-25" points="679.06 199.55 683.46 199.55 685.66 231.45 685.66 333.75 681.26 333.75 681.26 231.45 679.06 199.55"/></g><g class="cls-22"><polygon id="Rectangle-25" data-name="Rectangle" class="cls-25" points="560.26 199.55 564.66 199.55 566.86 231.45 566.86 333.75 562.46 333.75 562.46 231.45 560.26 199.55"/></g><g class="cls-22"><path id="Rectangle-26" data-name="Rectangle" class="cls-26" d="M503.87,217.15H813.53a4.41,4.41,0,0,1,3.94,2.43l2.2,4.4a4.41,4.41,0,0,1-3.94,6.37H500.41a26.06,26.06,0,0,0-3.53.24l-43.82,5.9a2.2,2.2,0,0,1-1.06-4.24L482.52,221A61.46,61.46,0,0,1,503.87,217.15Z" transform="translate(19.01)"/></g><g class="cls-22"><polygon id="Rectangle-27" data-name="Rectangle" class="cls-25" points="767.06 198.92 771.46 198.92 773.66 230.82 773.66 333.12 769.26 333.12 769.26 230.82 767.06 198.92"/></g><g class="cls-22"><path id="Path-2" data-name="Path" class="cls-27" d="M419.28,245.75a6.59,6.59,0,0,1,6.6,6.6,6,6,0,0,1-.07,1l-3,20.6a6.59,6.59,0,0,1-6.15,5.63l-7.5.44c-1.21-13.54,2.13-24.43,8.64-33.47l.55-.75Z" transform="translate(19.01)"/></g><g class="cls-22"><g id="Group-9"><g id="Rectangle-28" data-name="Rectangle"><path id="path-400-2" data-name="path-400" class="cls-28" d="M221.15,294.15h9.9a9.9,9.9,0,0,1,0,19.8h-9.9a9.9,9.9,0,1,1,0-19.8Z" transform="translate(19.01)"/></g><g class="cls-29"><path id="Rectangle-29" data-name="Rectangle" class="cls-1" d="M227.09,294.15H237a9.9,9.9,0,0,1,0,19.8h-9.9a9.9,9.9,0,1,1,0-19.8Z" transform="translate(19.01)"/></g></g></g><g class="cls-22"><path id="Rectangle-30" data-name="Rectangle" class="cls-30" d="M842.65,232.55h11v50.6h-11a8.8,8.8,0,0,1-8.8-8.8v-33A8.8,8.8,0,0,1,842.65,232.55Z" transform="translate(19.01)"/></g><g class="cls-22"><path id="Rectangle-31" data-name="Rectangle" class="cls-31" d="M847.05,232.55h11v50.6h-11a8.8,8.8,0,0,1-8.8-8.8v-33A8.8,8.8,0,0,1,847.05,232.55Z" transform="translate(19.01)"/></g><g class="cls-32"><polygon id="Rectangle-32" data-name="Rectangle" class="cls-33" points="828.66 304.39 899.06 304.39 899.06 371.15 828.66 371.15 828.66 304.39"/></g><g class="cls-21"><path id="Rectangle-33" data-name="Rectangle" class="cls-33" d="M547.85,332.87l134.63-4.29a4.46,4.46,0,0,0,2.93-1.25l8.65-8.45a4.27,4.27,0,0,1,2.16-1.16l38.63-8.17h0v63.8h-187Z" transform="translate(19.01)"/></g><g class="cls-22"><path id="Rectangle-34" data-name="Rectangle" class="cls-6" d="M360.92,340.35h13.65a6.59,6.59,0,0,1,5.81,3.47l6.77,12.56a6.6,6.6,0,0,0,5.7,3.47l18.83.3h0a21.27,21.27,0,0,0,10.18,8.8H360.92Z" transform="translate(19.01)"/></g><g class="cls-34"><path id="Rectangle-35" data-name="Rectangle" class="cls-6" d="M241.46,340.35H229.28a6.59,6.59,0,0,0-6.47,5.31l-2.12,10.64a4.39,4.39,0,0,1-4.24,3.54l-19.15.31h0a21.27,21.27,0,0,1-10.18,8.8h54.34Z" transform="translate(19.01)"/></g></g><path id="Rectangle-36" data-name="Rectangle" class="cls-33" d="M639.22,109.35H756.94a41.81,41.81,0,0,1,39.92,29.38l19.88,63.91a4.4,4.4,0,0,1-2.89,5.51,4.53,4.53,0,0,1-1.31.2H523.28a2.2,2.2,0,0,1-2.2-2.2,2.17,2.17,0,0,1,.33-1.16l28.71-46.14A104.92,104.92,0,0,1,639.22,109.35Z" transform="translate(19.01)"/><g id="Group-43"><g id="Rectangle-37" data-name="Rectangle"><path id="path-402-2" data-name="path-402" class="cls-35" d="M659.14,116h73.58c9.65,28.83,13.59,57.61,15.89,86.37H668.67C667.38,177.47,665.38,148.17,659.14,116Z" transform="translate(19.01)"/></g><g class="cls-36"><path id="Rectangle-38" data-name="Rectangle" class="cls-1" d="M654.74,120.35h73.58c9.65,28.83,13.59,57.61,15.89,86.37H664.27C663,181.87,661,152.57,654.74,120.35Z" transform="translate(19.01)"/></g></g><g id="Group-44"><g id="Rectangle-39" data-name="Rectangle"><path id="path-404-2" data-name="path-404" class="cls-35" d="M740.54,116h12.91a39.59,39.59,0,0,1,38.07,28.71l14.89,52.05a4.4,4.4,0,0,1-3,5.44,4.16,4.16,0,0,1-1.21.17H756.67A341.74,341.74,0,0,0,740.54,116Z" transform="translate(19.01)"/></g><g class="cls-37"><path id="Rectangle-40" data-name="Rectangle" class="cls-1" d="M736.14,120.35h12.91a39.59,39.59,0,0,1,38.07,28.71L802,201.11a4.4,4.4,0,0,1-3,5.44,4.16,4.16,0,0,1-1.21.17H752.27A341.74,341.74,0,0,0,736.14,120.35Z" transform="translate(19.01)"/></g></g><g id="Group-42"><g id="Rectangle-41" data-name="Rectangle"><path id="path-406-2" data-name="path-406" class="cls-35" d="M638.61,116H650c5.85,27.63,8.48,59.62,9.24,86.37H536.9a2.2,2.2,0,0,1-2.2-2.2,2.14,2.14,0,0,1,.35-1.17l25.16-39.81A92.75,92.75,0,0,1,638.61,116Z" transform="translate(19.01)"/></g><g class="cls-38"><path id="Rectangle-42" data-name="Rectangle" class="cls-1" d="M634.21,120.35H645.6c5.85,27.63,8.48,59.62,9.24,86.37H532.5a2.2,2.2,0,0,1-2.2-2.2,2.14,2.14,0,0,1,.35-1.17l25.16-39.81A92.75,92.75,0,0,1,634.21,120.35Z" transform="translate(19.01)"/></g></g><g id="Group-12"><g id="Rectangle-43" data-name="Rectangle"><path id="path-408-3" data-name="path-408" class="cls-35" d="M443.51,113.75H571.37c-36.9,14.1-56.52,56.32-68.62,85.21H347a2.21,2.21,0,0,1-2.2-2.2,2.23,2.23,0,0,1,.31-1.13l23.4-39.28A87.28,87.28,0,0,1,443.51,113.75Z" transform="translate(19.01)"/></g><g class="cls-39"><path id="Rectangle-44" data-name="Rectangle" class="cls-1" d="M434.71,118.15H553.77c-28.1,16.3-47.72,56.32-59.82,85.21H338.22a2.21,2.21,0,0,1-2.2-2.2,2.23,2.23,0,0,1,.31-1.13l23.4-39.28A87.28,87.28,0,0,1,434.71,118.15Z" transform="translate(19.01)"/></g><g class="cls-40"><rect id="Rectangle-45" data-name="Rectangle" class="cls-41" x="361.58" y="189.44" width="165.69" height="15.4"/></g></g><path id="Rectangle-46" data-name="Rectangle" class="cls-7" d="M254.79,243.55h112a2.19,2.19,0,0,1,2.2,2.2,2.33,2.33,0,0,1-.08.59L359,282a2.19,2.19,0,0,1-1.4,1.5L294.67,305.2a2.18,2.18,0,0,1-1.59-.06l-49.2-21.23a2.2,2.2,0,0,1-1.25-2.61l10-36.14A2.2,2.2,0,0,1,254.79,243.55Z" transform="translate(19.01)"/><path id="Rectangle-47" data-name="Rectangle" class="cls-41" d="M248.16,243.55h112a2.19,2.19,0,0,1,2.2,2.2,2.57,2.57,0,0,1-.08.62l-9.85,33.47a2.2,2.2,0,0,1-1.42,1.47l-63.1,20.83a2.13,2.13,0,0,1-1.53-.06l-49-20.37a2.21,2.21,0,0,1-1.27-2.66l10-33.92A2.21,2.21,0,0,1,248.16,243.55Z" transform="translate(19.01)"/><g id="Group-8"><g id="Rectangle-48" data-name="Rectangle"><path id="path-410-2" data-name="path-410" class="cls-28" d="M376.32,292h11a11,11,0,0,1,0,22h-11a11,11,0,0,1,0-22Z" transform="translate(19.01)"/></g><g class="cls-42"><path id="Rectangle-49" data-name="Rectangle" class="cls-1" d="M382.92,292h11a11,11,0,0,1,0,22h-11a11,11,0,0,1,0-22Z" transform="translate(19.01)"/></g></g><g id="Group-38"><g id="Rectangle-50" data-name="Rectangle"><path id="path-412-2" data-name="path-412" class="cls-7" d="M228.1,340.35H366.69a4.4,4.4,0,0,1,4.11,2.82L380.72,369h28.53l-22.42,8.64A35.18,35.18,0,0,1,374.17,380H351.94a2.24,2.24,0,0,1-1.2-.35l-5.17-3.35a4.38,4.38,0,0,0-2.38-.7h-7.61a4.21,4.21,0,0,0-3.71,2.2l-.58,1.05a2.19,2.19,0,0,1-1.93,1.15H271.05a2.2,2.2,0,0,1-1.52-.61l-2.7-2.57a4.33,4.33,0,0,0-3-1.22h-7.15a4.23,4.23,0,0,0-3.71,2.2l-.57,1.05a2.21,2.21,0,0,1-1.93,1.15h-7.91a12.12,12.12,0,0,1-11.68-8.88l-7-25.14a4.4,4.4,0,0,1,3.07-5.42A4.23,4.23,0,0,1,228.1,340.35Z" transform="translate(19.01)"/></g><g class="cls-43"><path id="Rectangle-51" data-name="Rectangle" class="cls-41" d="M244.46,355.75H351a13.19,13.19,0,0,1,12.64,9.41l5.54,18.44h-125l-6.08-19.26a6.59,6.59,0,0,1,4.3-8.28A6.37,6.37,0,0,1,244.46,355.75Z" transform="translate(19.01)"/></g></g><rect id="Rectangle-52" data-name="Rectangle" class="cls-44" x="630.66" y="239.15" width="39.6" height="8.8"/><rect id="Rectangle-53" data-name="Rectangle" class="cls-45" x="630.66" y="236.95" width="39.6" height="8.8"/><path id="Rectangle-54" data-name="Rectangle" class="cls-44" d="M721.65,239.15h22a2.19,2.19,0,0,1,2.2,2.2v4.4a2.2,2.2,0,0,1-2.2,2.2h-22a2.21,2.21,0,0,1-2.2-2.2v-4.4A2.2,2.2,0,0,1,721.65,239.15Z" transform="translate(19.01)"/><path id="Rectangle-55" data-name="Rectangle" class="cls-45" d="M721.65,237h22a2.19,2.19,0,0,1,2.2,2.2v4.4a2.2,2.2,0,0,1-2.2,2.2h-22a2.21,2.21,0,0,1-2.2-2.2v-4.4A2.2,2.2,0,0,1,721.65,237Z" transform="translate(19.01)"/><path id="Rectangle-56" data-name="Rectangle" class="cls-8" d="M560.89,173.15h26.56a4.4,4.4,0,0,1,4.4,4.4v28.6a4.4,4.4,0,0,1-4.4,4.4H526.58a7.33,7.33,0,0,1-7.33-7.33,9.61,9.61,0,0,1,7.07-9.28l8.33-2.3h0A27.86,27.86,0,0,1,560.89,173.15Z" transform="translate(19.01)"/></g><g id="Group"><path id="Rectangle-57" data-name="Rectangle" class="cls-46" d="M665.29,400.88c.28-.66,7.77-7,15.73-5.73l3.55-2.86-1.15-6h20.42v17.63a2.42,2.42,0,0,1-2.42,2.42h-35a1.2,1.2,0,0,1-1.21-1.15A16.78,16.78,0,0,1,665.29,400.88Z" transform="translate(19.01)"/><line id="Path-27" class="cls-47" x1="722.16" y1="402.92" x2="684.79" y2="402.92"/><g id="Group-61"><path id="Path-48" class="cls-48" d="M631.53,294.69l-5.5,7.44,32.52,23.58a4.42,4.42,0,0,0,4.76.27l25.16-14.28h0l1.85-19.89L662.64,309a4.4,4.4,0,0,1-4.41.13l-26.7-14.45Z" transform="translate(19.01)"/><g id="Group-2"><path id="Path-28" class="cls-46" d="M628,303.68a28.52,28.52,0,0,1-7-2.14q-2.16-1.14-16-9.17c-1.45-.86-.84-2.83,1-1.87-2.78-2.25-1.14-4,1.51-2.87-3.72-3.05-1.36-5.25,1.81-3.32-3.31-3.53-.42-4.52,1.82-3.17l9,5.17q-.9-4.24.33-5t11.92,13.56l5.54,1.51a2.2,2.2,0,0,1,1.55,2.7,2.36,2.36,0,0,1-.21.52l-4.13,7.2a2.2,2.2,0,0,1-3,.82,2.45,2.45,0,0,1-.41-.31L628,303.68Z" transform="translate(19.01)"/><path id="Path-29" class="cls-49" d="M620.1,286.72a27.14,27.14,0,0,0,3.93,9.63" transform="translate(19.01)"/><line id="Path-30" class="cls-49" x1="625.67" y1="290.61" x2="632.92" y2="294.74"/><line id="Path-30-2" data-name="Path-30" class="cls-49" x1="627.19" y1="287.74" x2="634.44" y2="291.88"/><line id="Path-30-3" data-name="Path-30" class="cls-49" x1="628.63" y1="284.22" x2="635.88" y2="288.36"/></g></g><g id="Group-11-3" data-name="Group-11"><ellipse id="Oval-15" data-name="Oval" class="cls-15" cx="590.04" cy="343.63" rx="37.4" ry="62.7"/><rect id="Rectangle-58" data-name="Rectangle" class="cls-15" x="587.84" y="280.93" width="33" height="125.4"/><ellipse id="Oval-16" data-name="Oval" class="cls-16" cx="618.64" cy="343.63" rx="37.4" ry="62.7"/><g id="Group-10-2" data-name="Group-10"><g id="Oval-17" data-name="Oval"><ellipse id="path-414-5" data-name="path-414" class="cls-8" cx="620.84" cy="344.73" rx="22" ry="41.8"/></g><g class="cls-50"><ellipse id="Oval-18" data-name="Oval" class="cls-6" cx="638.44" cy="322.73" rx="8.8" ry="11"/></g><g class="cls-51"><ellipse id="Oval-19" data-name="Oval" class="cls-6" cx="603.24" cy="322.73" rx="8.8" ry="11"/></g><g class="cls-50"><ellipse id="Oval-20" data-name="Oval" class="cls-6" cx="638.44" cy="368.93" rx="8.8" ry="11"/></g><g class="cls-51"><ellipse id="Oval-21" data-name="Oval" class="cls-6" cx="603.24" cy="368.93" rx="8.8" ry="11"/></g></g></g><g id="Group-77"><polygon id="Path-50" class="cls-52" points="701.64 293.49 683.05 304.66 697.86 322.24 715.15 315.94 701.64 293.49"/><polygon id="Path-53" class="cls-53" points="704.43 304.63 694.86 318.62 697.86 322.24 709.73 318.04 704.43 304.63"/></g><g id="Group-55"><g id="Group-53"><g id="Rectangle-59" data-name="Rectangle"><polygon id="path-416-2" data-name="path-416" class="cls-48" points="697.35 267.41 712.2 263.98 717.83 280.43 704.91 291.19 697.35 267.41"/></g><g class="cls-54"><polygon id="Path-17" class="cls-53" points="701.68 288.76 707.02 275.42 699.03 277.26 701.68 288.76"/></g></g><g id="Group-74"><g id="Rectangle-60" data-name="Rectangle"><path id="path-418-4" data-name="path-418" class="cls-48" d="M662.2,253.34,689.79,247l3.67,15.92a14.16,14.16,0,0,1-10.61,17l-1.66.38a12.44,12.44,0,0,1-14.93-9.33h0c-3.94.91-2.49-2.76-1.55-6.72Z" transform="translate(19.01)"/></g><g class="cls-55"><path id="Rectangle-61" data-name="Rectangle" class="cls-1" d="M665.68,273.56l5-1.56a3.29,3.29,0,0,1-2.45,3.68C667.05,276.11,666.2,275.4,665.68,273.56Z" transform="translate(19.01)"/></g><g class="cls-55"><path id="Path-42" class="cls-56" d="M668.41,277.43a6.37,6.37,0,0,0,2.24-.89" transform="translate(19.01)"/></g><g class="cls-55"><circle id="Oval-22" data-name="Oval" class="cls-57" cx="687.37" cy="264.2" r="1.21"/></g></g><path id="Rectangle-62" data-name="Rectangle" class="cls-48" d="M689,258.33l2.15-.5a5.44,5.44,0,0,1,2.45,10.61l-2.15.5h0Z" transform="translate(19.01)"/><path id="Path-15" class="cls-57" d="M677.2,252q10.57,12.22,11,12.13c.28-.07.92-2.08,1.9-6,1.81-.42,4.77-.59,6.7,1.81q1.53-16.71-9.53-18.91c-11-2.21-16.41-1-20.2,2.12s-7,10.73-4.12,11.24Q665.79,254.85,677.2,252Z" transform="translate(19.01)"/><path id="Rectangle-63" data-name="Rectangle" class="cls-57" d="M664.36,259l4.95-1.14a1.47,1.47,0,0,1,1.78,1.11,1.22,1.22,0,0,1-.92,1.48.91.91,0,0,1-.23,0l-5.21.22a1,1,0,0,1-1-.74A.8.8,0,0,1,664.36,259Z" transform="translate(19.01)"/><path id="Path-16" class="cls-58" d="M694.19,259.79c-4.07.28-3.73,3.87-2.41,5.6" transform="translate(19.01)"/><path id="Path-24" class="cls-52" d="M697.24,252.4l-35.9,2.14a14.8,14.8,0,0,1,13.52-16l.64,0,5.6-.22a15.59,15.59,0,0,1,16.14,14.1Z" transform="translate(19.01)"/><path id="Path-25" class="cls-59" d="M680.27,253.44q-20.26-9.69-25-6-4.37,3.39,6.08,7.1Z" transform="translate(19.01)"/></g><path id="Path-45" class="cls-52" d="M696.65,274.08q19.41,3.1,24.6,7.13c5.19,4,25.26,30.62,25.26,51.89,0,6.12-24.83,18.43-31.86,12.42s-29.87-46.12-31.86-50.06q-2-3.94,1-11C686.74,290.75,690.66,284.77,696.65,274.08Z" transform="translate(19.01)"/><path id="Path-52" class="cls-53" d="M721.25,291.64l4,29.62c-7.95,9.3-9.65,4.21-19.15,6.2L699,308.51l4.21-13.25Z" transform="translate(19.01)"/><path id="Path-46" class="cls-60" d="M699.92,311.91l-5.16,1.38c-5.42-10-7.74-15.31-11.19-28.52L682,287a98.49,98.49,0,0,0,13.4,33.67l-20.19-1.54a11,11,0,0,0-11,15.12l18.48,45.34h0l38.62-42.75Z" transform="translate(19.01)"/><path id="Path-54" class="cls-53" d="M695.37,370.4l-6.18-28.92a4.35,4.35,0,0,1,4-5.3l6.73-.46h0l-.71-22L712.58,340Z" transform="translate(19.01)"/><path id="Combined-Shape" class="cls-61" d="M699.16,275.34q30.2-11.19,51.45,62.62a26.4,26.4,0,0,1-10.25,28.94h0l-16.44,11.49,31.53,1.15v16.89q-71,7.05-73.46-8.15-2.6-16,28.62-47.64C696.33,310.93,683.81,281,699.16,275.34Zm-3.79,8.23q-2.24,11.7,14,40.91c10.81-3.66,18.75-6.62,25.53-14.93q-8.69-24.12-18.52-29.89C708.33,274.91,696.8,276.1,695.37,283.57Z" transform="translate(19.01)"/><path id="Path-55" class="cls-53" d="M725.39,317.82q2.55,21.26,0,26.12-1.47,2.83-41.49,32.23l3.3-7.69,19.87-35.28-2.29-4.91-2.25-16.68,9.12,14.25Z" transform="translate(19.01)"/><g id="Group-3"><path id="Combined-Shape-2" data-name="Combined-Shape" class="cls-10" d="M636.14,346.79l2.64.56a6,6,0,1,1-6.95,7.72L631,352.5a1.32,1.32,0,0,1,.28-1.29l.15-.17,4,3.74a2.52,2.52,0,0,0,3.43,0l.12-.12a2.52,2.52,0,0,0-.13-3.56h0l-4.07-3.8.09-.11A1.32,1.32,0,0,1,636.14,346.79Z" transform="translate(19.01)"/><path id="Combined-Shape-3" data-name="Combined-Shape" class="cls-10" d="M663.25,382.86l-2.64-.6a6,6,0,1,1,7.09-7.61l.79,2.59a1.33,1.33,0,0,1-.29,1.29l-.16.17-3.95-3.82a2.52,2.52,0,0,0-3.43-.05l-.12.12a2.5,2.5,0,0,0,.06,3.55h0l4,3.87-.1.11A1.31,1.31,0,0,1,663.25,382.86Z" transform="translate(19.01)"/><rect id="Rectangle-64" data-name="Rectangle" class="cls-10" x="647.1" y="350.43" width="5.03" height="28.38" transform="translate(-41.08 591.05) rotate(-47)"/></g><g id="Group-80"><path id="Path-49" class="cls-48" d="M671.54,358.31l26.15-22.5a8.81,8.81,0,0,0,3-5.84l3.63-38.18h0l15.8,2.5-3.72,41.4a8.84,8.84,0,0,1-4.24,6.76l-38.5,23.13h0Z" transform="translate(19.01)"/><path id="Rectangle-65" data-name="Rectangle" class="cls-52" d="M713.18,285.14a10.05,10.05,0,0,1,8.43,11l-3,27.43h0l-18-2.85,2.29-27.56a8.89,8.89,0,0,1,9.6-8.12C712.75,285.08,713,285.1,713.18,285.14Z" transform="translate(19.01)"/><path id="Path-32" class="cls-46" d="M666.55,358.55a14,14,0,0,0-7.71-.65q-1.53.3-9.81,2a.72.72,0,0,0-.56.86.75.75,0,0,0,.2.37,3.67,3.67,0,0,0,2.3,1c2.33.19,3.88.33,4.64.43l-3.3,1.8-3.3,1.8-1.4.61c-1.41.81-1.94,1.55-1.59,2.23s1.45,1,3.18.74l3.89-1.76q-5.62,2.43-4.77,4c.57,1.05,2.5.82,5.8-.67-2.62,1.31-4.2,1.54-3.57,2.86q.54,1.13,5.52,0c-1.45.72-3.68,1-3,2.3s2.07,1.14,4.43.48q2.34-.66,13.84-9l5.28-2.33a2.19,2.19,0,0,0,1.12-2.9.37.37,0,0,0,0-.11l-3.37-6.61a2.19,2.19,0,0,0-3-.95,1.56,1.56,0,0,0-.28.16l-4.55,3.26Z" transform="translate(19.01)"/></g><path id="Path-56" class="cls-46" d="M755.45,379.54l15.25,1a2.18,2.18,0,0,1,2,2.19V402a4.4,4.4,0,0,1-4.4,4.4H751.26a2.21,2.21,0,0,1-2.19-1.95,4.17,4.17,0,0,1,.66-2.75,9.19,9.19,0,0,1,7.54-3.85v-3.18l-1.82,1.8Z" transform="translate(19.01)"/><path id="Path-57" class="cls-47" d="M769.36,380.69v20.45a2.2,2.2,0,0,1-2.2,2.2H750" transform="translate(19.01)"/><path id="Path-60" class="cls-53" d="M757.27,397.81q6.71.48,6.7,0t-6.7-3.18Z" transform="translate(19.01)"/></g></g></g></g></svg>