<svg xmlns="http://www.w3.org/2000/svg" width="743.739" height="396.522" viewBox="0 0 743.739 396.522">
  <g id="Group-193" transform="matrix(0.951, -0.309, 0.309, 0.951, -3456.857, 339.044)" opacity="0.04">
    <path id="Rectangle" d="M4049.4,977.489v26.99a26.991,26.991,0,0,1-26.99,26.988H3320.686a26.991,26.991,0,0,1-26.99-26.988v-26.99a26.991,26.991,0,0,1,26.99-26.989h701.725A26.991,26.991,0,0,1,4049.4,977.489Z" transform="translate(0.005 99.157)" fill="#a18fff"/>
    <path id="Rectangle-2" data-name="Rectangle" d="M4049.4,954.9a26.991,26.991,0,0,1-26.99,26.988H3320.686A26.991,26.991,0,0,1,3293.7,954.9H4049.4Z" transform="translate(0.005 148.736)" fill="#a18fff"/>
    <path id="Rectangle-3" data-name="Rectangle" d="M3425.27,941.7v242.9L3408.93,1217.3a27,27,0,0,1-48.284,0L3344.3,1184.6h0V941.7Z" transform="translate(570.15 0.001)" fill="#a18fff"/>
    <rect id="Rectangle-4" data-name="Rectangle" width="80.968" height="26.989" transform="translate(3914.455 941.7)" fill="#a18fff"/>
  </g>
</svg>
