<svg xmlns="http://www.w3.org/2000/svg" width="371.101" height="452.756" viewBox="0 0 371.101 452.756">
  <g id="Wrench2" transform="matrix(0.914, -0.407, 0.407, 0.914, -2524.015, 709)">
    <path id="Path" d="M461.966,63.7a10.746,10.746,0,0,1-3.7,9.428L442.948,85.442a38.506,38.506,0,0,1-42.015,4.494A45.525,45.525,0,0,1,380.86,69.367L83.406,100.4A45.431,45.431,0,0,1,68.62,121.237a38.521,38.521,0,0,1-42.107,3.689l-17.35-9.136a10.636,10.636,0,0,1-5.418-8.535l-.159-1.8,38.562-2.636c9.095-.615,16.046-8.8,16.294-18.724l-.057-2.152c-.719-10.145-8.213-18.036-17.13-18.5l-1.93.014L.133,66.132.044,64.961a10.67,10.67,0,0,1,3.85-9.34l15.5-12a38.516,38.516,0,0,1,42.1-3.689,45.9,45.9,0,0,1,19.75,20.965L378.08,29.913a45.6,45.6,0,0,1,14.463-21.17,38.526,38.526,0,0,1,42.03-4.494l17.484,8.8a10.6,10.6,0,0,1,5.546,8.432l.191,1.8-38.5,3.382c-9.091.791-15.9,9.106-16,19.047l.088,2.152c.9,10.132,8.493,17.876,17.424,18.168l1.934-.058,39.129-3.426Z" transform="translate(2440.242 724.653) rotate(-31)" fill="#7e7e7e" opacity="0.15"/>
  </g>
</svg>
