<svg xmlns="http://www.w3.org/2000/svg" xmlns:xlink="http://www.w3.org/1999/xlink" viewBox="0 0 787.86 607.2"><defs><style>.cls-1,.cls-41,.cls-44{fill:#fff;}.cls-2{fill:#ac3b28;}.cls-3{fill:#f36155;}.cls-4{fill:#1a170f;}.cls-5{fill:#7d2a1c;}.cls-6{fill:#9da3bc;}.cls-7{fill:#faad82;}.cls-8{fill:#ff9251;}.cls-15,.cls-16,.cls-9{fill:none;stroke-linejoin:round;stroke-width:1.21px;}.cls-9{stroke:#c36a34;stroke-linecap:square;}.cls-10{fill:#a4411f;}.cls-11{fill:#e29970;}.cls-12{mask:url(#mask);}.cls-13{fill-opacity:0.14;}.cls-14{fill:#742a11;}.cls-15{stroke:#ae6f6f;}.cls-15,.cls-16{stroke-linecap:round;}.cls-16{stroke:#d98989;}.cls-17{fill:#ededed;}.cls-18{fill:#c6627e;}.cls-19{mask:url(#mask-2);}.cls-20{fill:#74726a;}.cls-21{fill:#53524d;}.cls-22{fill:#42acf5;}.cls-23{fill:#b8e2ff;}.cls-24{fill:#484646;}.cls-25{fill:#6b6b6b;}.cls-26{fill:#bbbbca;}.cls-27{fill:#31302d;}.cls-28{fill:#e1e1f0;}.cls-29{mask:url(#mask-3);}.cls-30{fill:#3d361a;}.cls-31{mask:url(#mask-7);}.cls-32{mask:url(#mask-11);}.cls-33{mask:url(#mask-15);}.cls-34{fill:#4300ad;}.cls-35{fill:#6500e6;}.cls-36{mask:url(#mask-17);}.cls-37{mask:url(#mask-18);}.cls-38{fill:#5e32a5;opacity:0.53;}.cls-38,.cls-41{isolation:isolate;}.cls-39{mask:url(#mask-19);}.cls-40{fill-opacity:0.09;}.cls-41{opacity:0.41;}.cls-42{fill:#ffd33a;}.cls-43{mask:url(#mask-24);}.cls-44{fill-opacity:0.41;}.cls-45{fill:#56c5fc;}.cls-46{mask:url(#mask-29);}.cls-47{fill:#8ccff9;}.cls-48{mask:url(#mask-30);}.cls-49{mask:url(#mask-32);}.cls-50{mask:url(#mask-34);}.cls-51{fill:#dcf0fe;}.cls-52{mask:url(#mask-37);}.cls-53{mask:url(#mask-39);}.cls-54{mask:url(#mask-43);}.cls-55{mask:url(#mask-44);}.cls-56{mask:url(#mask-45);}.cls-57{mask:url(#mask-46);}.cls-58{mask:url(#mask-47);}.cls-59{fill:#b3bad5;}.cls-60{fill:#ffbc00;}.cls-61{fill:#ff8827;}</style><mask id="mask" x="229.21" y="332.95" width="13.78" height="35.07" maskUnits="userSpaceOnUse"><g id="mask-475"><polygon id="path-474" class="cls-1" points="230.16 332.95 242.99 333.18 242.38 368.02 229.56 367.8 230.16 332.95"/></g></mask><mask id="mask-2" x="212.93" y="353.14" width="56.36" height="92.46" maskUnits="userSpaceOnUse"><g id="mask-477"><path id="path-476" class="cls-1" d="M229.57,353.14h0c.52,9.6,13.34,7.94,12.83,0h5.74A19.36,19.36,0,0,1,267.5,372.5a19.87,19.87,0,0,1-.26,3.18l-6.16,37h0L265.74,438c-19.07,9.9-42.24,10.17-50.91.27l3.07-26.52q-2.43-10.41-4.32-15.86c-1.93-5.54,1-18.29,1-19.58a39.2,39.2,0,0,0-.61-4.88,15.77,15.77,0,0,1,15.56-18.33Z"/></g></mask><mask id="mask-3" x="319.2" y="226.85" width="44" height="83.6" maskUnits="userSpaceOnUse"><g id="mask-479"><ellipse id="path-478" class="cls-1" cx="341.2" cy="268.65" rx="22" ry="41.8"/></g></mask><mask id="mask-7" x="121.2" y="226.85" width="44" height="83.6" maskUnits="userSpaceOnUse"><g id="mask-481"><ellipse id="path-480" class="cls-1" cx="143.2" cy="268.65" rx="22" ry="41.8"/></g></mask><mask id="mask-11" x="671.2" y="226.85" width="44" height="83.6" maskUnits="userSpaceOnUse"><g id="mask-483"><ellipse id="path-482" class="cls-1" cx="693.2" cy="268.65" rx="22" ry="41.8"/></g></mask><mask id="mask-15" x="488.6" y="226.85" width="44" height="83.6" maskUnits="userSpaceOnUse"><g id="mask-485"><ellipse id="path-484" class="cls-1" cx="510.6" cy="268.65" rx="22" ry="41.8"/></g></mask><mask id="mask-17" x="22.2" y="35.45" width="756.86" height="255.2" maskUnits="userSpaceOnUse"><g id="mask-487"><path id="path-486" class="cls-1" d="M292.11,35.45H532.69a13.2,13.2,0,0,1,13.2,13.18l.16,81.42h216.5a4.4,4.4,0,0,1,4.4,4.35q1.31,104,1.3,111.68a10.81,10.81,0,0,1,10.81,10.81v11.76a22,22,0,0,1-22,22H734.78a2.2,2.2,0,0,1-2.2-2.2V221a38.64,38.64,0,0,0-38.64-38.65,42.22,42.22,0,0,0-42.05,38.49l-5.21,59a2.21,2.21,0,0,1-2.2,2H382.21a2.2,2.2,0,0,1-2.2-2.2V218.81a38.64,38.64,0,0,0-38.64-38.65,42.13,42.13,0,0,0-42,38.5l-5.29,61.18a2.2,2.2,0,0,1-2.2,2H42a8.8,8.8,0,0,1-8.8-8.8V258.17a15.06,15.06,0,0,1,8.8-13.7h0V188.36a48.41,48.41,0,0,1,33.82-46.15l87.24-27.56h0l40.72-41.88A123.2,123.2,0,0,1,292.11,35.45Z"/></g></mask><mask id="mask-18" x="33.2" y="35.45" width="754.66" height="255.2" maskUnits="userSpaceOnUse"><g id="mask-487-2" data-name="mask-487"><path id="path-486-2" data-name="path-486" class="cls-1" d="M292.11,35.45H532.69a13.2,13.2,0,0,1,13.2,13.18l.16,81.42h216.5a4.4,4.4,0,0,1,4.4,4.35q1.31,104,1.3,111.68a10.81,10.81,0,0,1,10.81,10.81v11.76a22,22,0,0,1-22,22H734.78a2.2,2.2,0,0,1-2.2-2.2V221a38.64,38.64,0,0,0-38.64-38.65,42.22,42.22,0,0,0-42.05,38.49l-5.21,59a2.21,2.21,0,0,1-2.2,2H382.21a2.2,2.2,0,0,1-2.2-2.2V218.81a38.64,38.64,0,0,0-38.64-38.65,42.13,42.13,0,0,0-42,38.5l-5.29,61.18a2.2,2.2,0,0,1-2.2,2H42a8.8,8.8,0,0,1-8.8-8.8V258.17a15.06,15.06,0,0,1,8.8-13.7h0V188.36a48.41,48.41,0,0,1,33.82-46.15l87.24-27.56h0l40.72-41.88A123.2,123.2,0,0,1,292.11,35.45Z"/></g></mask><mask id="mask-19" x="33.2" y="35.45" width="745.86" height="255.2" maskUnits="userSpaceOnUse"><g id="mask-487-3" data-name="mask-487"><path id="path-486-3" data-name="path-486" class="cls-1" d="M292.11,35.45H532.69a13.2,13.2,0,0,1,13.2,13.18l.16,81.42h216.5a4.4,4.4,0,0,1,4.4,4.35q1.31,104,1.3,111.68a10.81,10.81,0,0,1,10.81,10.81v11.76a22,22,0,0,1-22,22H734.78a2.2,2.2,0,0,1-2.2-2.2V221a38.64,38.64,0,0,0-38.64-38.65,42.22,42.22,0,0,0-42.05,38.49l-5.21,59a2.21,2.21,0,0,1-2.2,2H382.21a2.2,2.2,0,0,1-2.2-2.2V218.81a38.64,38.64,0,0,0-38.64-38.65,42.13,42.13,0,0,0-42,38.5l-5.29,61.18a2.2,2.2,0,0,1-2.2,2H42a8.8,8.8,0,0,1-8.8-8.8V258.17a15.06,15.06,0,0,1,8.8-13.7h0V188.36a48.41,48.41,0,0,1,33.82-46.15l87.24-27.56h0l40.72-41.88A123.2,123.2,0,0,1,292.11,35.45Z"/></g></mask><mask id="mask-24" x="752.6" y="176.25" width="24.2" height="50.6" maskUnits="userSpaceOnUse"><g id="mask-489"><path id="path-488" class="cls-1" d="M761.4,176.25h11v50.6h-11a8.8,8.8,0,0,1-8.8-8.8v-33A8.8,8.8,0,0,1,761.4,176.25Z"/></g></mask><mask id="mask-29" x="170.45" y="44.25" width="255.86" height="72.01" maskUnits="userSpaceOnUse"><g id="mask-491"><path id="path-490" class="cls-1" d="M291.87,44.25H426.32c-34.52,14.89-50.58,41.18-66.42,67.61H183.65a2.19,2.19,0,0,1-1.54-3.76L214.52,76A110,110,0,0,1,291.87,44.25Z"/></g></mask><mask id="mask-30" x="167.4" y="44.25" width="258.92" height="81.4" maskUnits="userSpaceOnUse"><g id="mask-491-2" data-name="mask-491"><path id="path-490-2" data-name="path-490" class="cls-1" d="M291.87,44.25H426.32c-34.52,14.89-50.58,41.18-66.42,67.61H183.65a2.19,2.19,0,0,1-1.54-3.76L214.52,76A110,110,0,0,1,291.87,44.25Z"/></g></mask><mask id="mask-32" x="33.2" y="35.45" width="748" height="257.4" maskUnits="userSpaceOnUse"><g id="mask-487-13" data-name="mask-487"><path id="path-486-13" data-name="path-486" class="cls-1" d="M292.11,35.45H532.69a13.2,13.2,0,0,1,13.2,13.18l.16,81.42h216.5a4.4,4.4,0,0,1,4.4,4.35q1.31,104,1.3,111.68a10.81,10.81,0,0,1,10.81,10.81v11.76a22,22,0,0,1-22,22H734.78a2.2,2.2,0,0,1-2.2-2.2V221a38.64,38.64,0,0,0-38.64-38.65,42.22,42.22,0,0,0-42.05,38.49l-5.21,59a2.21,2.21,0,0,1-2.2,2H382.21a2.2,2.2,0,0,1-2.2-2.2V218.81a38.64,38.64,0,0,0-38.64-38.65,42.13,42.13,0,0,0-42,38.5l-5.29,61.18a2.2,2.2,0,0,1-2.2,2H42a8.8,8.8,0,0,1-8.8-8.8V258.17a15.06,15.06,0,0,1,8.8-13.7h0V188.36a48.41,48.41,0,0,1,33.82-46.15l87.24-27.56h0l40.72-41.88A123.2,123.2,0,0,1,292.11,35.45Z"/></g></mask><mask id="mask-34" x="374.74" y="53.7" width="112.58" height="70.33" maskUnits="userSpaceOnUse"><g id="mask-493"><path id="path-492" class="cls-1" d="M458.26,57l24.07-3.3a4.4,4.4,0,0,1,5,3.76c0,.2,0,.4,0,.6v57.13a4.4,4.4,0,0,1-4.4,4.4H381.34a2.21,2.21,0,0,1-2.2-2.2,2.17,2.17,0,0,1,.57-1.47l29.85-33.14A80.29,80.29,0,0,1,458.26,57Z"/></g></mask><mask id="mask-37" x="190.06" y="255.45" width="35.64" height="19.8" maskUnits="userSpaceOnUse"><g id="mask-495"><path id="path-494" class="cls-1" d="M205.9,255.45h9.9a9.9,9.9,0,0,1,0,19.8h-9.9a9.9,9.9,0,0,1,0-19.8Z"/></g></mask><mask id="mask-39" x="33.86" y="255.45" width="35.64" height="19.8" maskUnits="userSpaceOnUse"><g id="mask-497"><path id="path-496" class="cls-1" d="M49.7,255.45h9.9a9.9,9.9,0,0,1,0,19.8H49.7a9.9,9.9,0,0,1,0-19.8Z"/></g></mask><mask id="mask-43" x="189.74" y="191.65" width="52.53" height="36.67" maskUnits="userSpaceOnUse"><g id="mask-499"><path id="path-498" class="cls-1" d="M196.34,191.65h39.32a6.6,6.6,0,0,1,6.6,6.6v20.83a6.58,6.58,0,0,1-6,6.57l-29.46,2.64a8.8,8.8,0,0,1-9.53-7.74l-3.11-26.44a2.2,2.2,0,0,1,1.93-2.44Z"/></g></mask><mask id="mask-44" x="22.26" y="35.45" width="756.8" height="255.2" maskUnits="userSpaceOnUse"><g id="mask-487-21" data-name="mask-487"><path id="path-486-21" data-name="path-486" class="cls-1" d="M292.11,35.45H532.69a13.2,13.2,0,0,1,13.2,13.18l.16,81.42h216.5a4.4,4.4,0,0,1,4.4,4.35q1.31,104,1.3,111.68a10.81,10.81,0,0,1,10.81,10.81v11.76a22,22,0,0,1-22,22H734.78a2.2,2.2,0,0,1-2.2-2.2V221a38.64,38.64,0,0,0-38.64-38.65,42.22,42.22,0,0,0-42.05,38.49l-5.21,59a2.21,2.21,0,0,1-2.2,2H382.21a2.2,2.2,0,0,1-2.2-2.2V218.81a38.64,38.64,0,0,0-38.64-38.65,42.13,42.13,0,0,0-42,38.5l-5.29,61.18a2.2,2.2,0,0,1-2.2,2H42a8.8,8.8,0,0,1-8.8-8.8V258.17a15.06,15.06,0,0,1,8.8-13.7h0V188.36a48.41,48.41,0,0,1,33.82-46.15l87.24-27.56h0l40.72-41.88A123.2,123.2,0,0,1,292.11,35.45Z"/></g></mask><mask id="mask-45" x="17.86" y="191.65" width="52.8" height="36.67" maskUnits="userSpaceOnUse"><g id="mask-501"><path id="path-500" class="cls-1" d="M24.74,191.65H64.06a6.6,6.6,0,0,1,6.6,6.6v20.83a6.58,6.58,0,0,1-6,6.57l-29.46,2.64a8.8,8.8,0,0,1-9.53-7.74l-3.11-26.44a2.2,2.2,0,0,1,1.93-2.44Z"/></g></mask><mask id="mask-46" x="0" y="35.45" width="779.06" height="255.2" maskUnits="userSpaceOnUse"><g id="mask-487-22" data-name="mask-487"><path id="path-486-22" data-name="path-486" class="cls-1" d="M292.11,35.45H532.69a13.2,13.2,0,0,1,13.2,13.18l.16,81.42h216.5a4.4,4.4,0,0,1,4.4,4.35q1.31,104,1.3,111.68a10.81,10.81,0,0,1,10.81,10.81v11.76a22,22,0,0,1-22,22H734.78a2.2,2.2,0,0,1-2.2-2.2V221a38.64,38.64,0,0,0-38.64-38.65,42.22,42.22,0,0,0-42.05,38.49l-5.21,59a2.21,2.21,0,0,1-2.2,2H382.21a2.2,2.2,0,0,1-2.2-2.2V218.81a38.64,38.64,0,0,0-38.64-38.65,42.13,42.13,0,0,0-42,38.5l-5.29,61.18a2.2,2.2,0,0,1-2.2,2H42a8.8,8.8,0,0,1-8.8-8.8V258.17a15.06,15.06,0,0,1,8.8-13.7h0V188.36a48.41,48.41,0,0,1,33.82-46.15l87.24-27.56h0l40.72-41.88A123.2,123.2,0,0,1,292.11,35.45Z"/></g></mask><mask id="mask-47" x="490.8" y="53.05" width="35.2" height="70.98" maskUnits="userSpaceOnUse"><g id="mask-503"><path id="path-502" class="cls-1" d="M499.6,53.05h22a4.4,4.4,0,0,1,4.4,4.4v57.78a4.4,4.4,0,0,1-4.4,4.4h-22a4.4,4.4,0,0,1-4.4-4.4V57.45A4.4,4.4,0,0,1,499.6,53.05Z"/></g></mask></defs><g id="Layer_2" data-name="Layer 2"><g id="Layer_4" data-name="Layer 4"><g id="Car-Repair-Lifter"><g id="Group-106"><polygon id="Rectangle" class="cls-2" points="220.2 8.8 270.8 8.8 270.8 607.2 220.2 607.2 220.2 8.8"/><polygon id="Rectangle-2" data-name="Rectangle" class="cls-3" points="220.2 8.8 233.4 8.8 233.4 607.2 220.2 607.2 220.2 8.8"/><path id="Rectangle-3" data-name="Rectangle" class="cls-4" d="M252.1,33a3.3,3.3,0,0,1,3.3,3.3V603.9a3.3,3.3,0,0,1-6.6,0V36.3A3.3,3.3,0,0,1,252.1,33Z"/><path id="Rectangle-4" data-name="Rectangle" class="cls-5" d="M209.2,580.8H284a4.4,4.4,0,0,1,4.4,4.4v22H204.8v-22A4.4,4.4,0,0,1,209.2,580.8Z"/><path id="Rectangle-5" data-name="Rectangle" class="cls-2" d="M209.2,580.8h28.6a4.4,4.4,0,0,1,4.4,4.4v22H204.8v-22A4.4,4.4,0,0,1,209.2,580.8Z"/><rect id="Rectangle-6" data-name="Rectangle" class="cls-5" x="191.6" y="600.6" width="112.2" height="6.6"/><path id="Rectangle-7" data-name="Rectangle" class="cls-2" d="M235.6,0h42.76a2.19,2.19,0,0,1,2.2,2.2V19.8a2.19,2.19,0,0,1-2.2,2.2H235.6a2.19,2.19,0,0,1-2.2-2.2V2.2A2.19,2.19,0,0,1,235.6,0Z"/><path id="Rectangle-8" data-name="Rectangle" class="cls-3" d="M213.6,0h24.2A2.2,2.2,0,0,1,240,2.2V19.8a2.2,2.2,0,0,1-2.2,2.2H213.6a2.19,2.19,0,0,1-2.2-2.2V2.2A2.19,2.19,0,0,1,213.6,0Z"/></g><path id="Rectangle-9" data-name="Rectangle" class="cls-6" d="M242.2,295.05H444.6a4.4,4.4,0,0,1,4.4,4.4v8.8a4.4,4.4,0,0,1-4.4,4.4H242.2a4.4,4.4,0,0,1-4.4-4.4v-8.8A4.4,4.4,0,0,1,242.2,295.05Z"/><g id="Group-56"><path id="Rectangle-10" data-name="Rectangle" class="cls-7" d="M226.21,575.3h8.23v27a4.35,4.35,0,0,1-4.35,4.35H207.18a2.61,2.61,0,0,1-2.61-2.61,3.79,3.79,0,0,1,2.44-3.54L218.85,596A13.07,13.07,0,0,0,227.16,582l-.95-6.67Z"/><path id="Rectangle-11" data-name="Rectangle" class="cls-8" d="M204.08,601.74c.28-.65,7.77-7,15.73-5.72l3.55-2.86-1.15-6h13.16v17.63A2.42,2.42,0,0,1,233,607.2H205.22a1.21,1.21,0,0,1-1.2-1.15A16.9,16.9,0,0,1,204.08,601.74Z"/><path id="Rectangle-12" data-name="Rectangle" class="cls-7" d="M262.76,575.3H271l2.18,17.2,5,8.43a2.21,2.21,0,0,1,.3,1.1v2.45a2.18,2.18,0,0,1-2.18,2.18H265.5a2.61,2.61,0,0,1-2.61-2.61v-2.13a4.32,4.32,0,0,1,.1-.95l1.44-6.41a13.2,13.2,0,0,0,.21-4.52l-1.88-14.74Z"/><path id="Rectangle-13" data-name="Rectangle" class="cls-8" d="M264.4,594.37,262,587.15h11.88l1.1,7.22,5.73,9.53a2.18,2.18,0,0,1-.74,3,2.22,2.22,0,0,1-1.12.31H264a2.19,2.19,0,0,1-2.18-2.18,2.33,2.33,0,0,1,.07-.53l2.55-10.12Z"/><line id="Path-27" class="cls-9" x1="280" y1="603.59" x2="262.33" y2="603.59"/><g id="Group-55"><path id="Path-44" class="cls-10" d="M255.66,339.88q-1.12,10.86-5.42,14.71c-1.11,1-3.21,1.24-4.32,1.45a10.32,10.32,0,0,0-5.14,2.93c1-8.43,1.65-8.39,10.4-19.6l2.43-1.09Z"/><path id="Rectangle-14" data-name="Rectangle" class="cls-11" d="M229.13,320.9h0l-5.37,6.86a4.28,4.28,0,0,1-.73-6l.1-.13A4.27,4.27,0,0,1,229.13,320.9Z"/><g id="Group-53"><g id="Rectangle-15" data-name="Rectangle"><polygon id="path-474-2" data-name="path-474" class="cls-7" points="230.16 332.95 242.99 333.18 242.38 368.02 229.56 367.8 230.16 332.95"/></g><g class="cls-12"><polygon id="Path-17" class="cls-13" points="229.21 354.72 237.61 343.06 229.41 342.91 229.21 354.72"/></g></g><path id="Rectangle-16" data-name="Rectangle" class="cls-7" d="M234.18,311l22.31,17.44-10.05,12.87a14.16,14.16,0,0,1-22.31-17.43L234.18,311Z"/><path id="Rectangle-17" data-name="Rectangle" class="cls-7" d="M248.91,336.35l1.74,1.36a5.45,5.45,0,1,1-6.71,8.58l-1.73-1.36h0Z"/><circle id="Oval" class="cls-14" cx="234.36" cy="326.52" r="1.21"/><circle id="Oval-2" data-name="Oval" class="cls-14" cx="229.4" cy="322.65" r="1.21"/><path id="Path-14" class="cls-15" d="M228.88,326.48c-2-.43-3.45,1-1.52,2.55"/><path id="Path-15" class="cls-10" d="M247.34,332.71q-3.78,6.38-3.43,6.64t5.88-2.31a7.22,7.22,0,0,1,2.77,3.77q12.24-8.12,7-18.09c-5.24-10-9.57-13.37-14.36-14.37s-9.45-.33-12.26,3.27Q228,317.93,247.34,332.71Z"/><path id="Path" class="cls-14" d="M229.91,317.44a2.37,2.37,0,0,1,2.92,2.23.55.55,0,0,1-.52.58.56.56,0,0,1-.58-.52,1.31,1.31,0,0,0-1.32-1.27l-.18,0a.55.55,0,0,1-.69-.36A.55.55,0,0,1,229.91,317.44Z"/><path id="Path-2" data-name="Path" class="cls-14" d="M236.46,322.56a2.37,2.37,0,0,1,2.92,2.23.55.55,0,1,1-1.09.06,1.32,1.32,0,0,0-1.32-1.27l-.19,0a.55.55,0,0,1-.69-.36A.56.56,0,0,1,236.46,322.56Z"/><path id="Path-16" class="cls-15" d="M251,341.3c-2.77-3-5.35-.47-5.86,1.65"/><path id="Rectangle-18" data-name="Rectangle" class="cls-1" d="M224.22,329.9c.49,0,3.5,1.93,6.33,4.14a5.37,5.37,0,0,1-4.81-.74C223.88,331.85,223.73,329.9,224.22,329.9Z"/><path id="Path-42" class="cls-16" d="M224.26,333.78a6.31,6.31,0,0,0,2.06,1.26"/><path id="Path-24" class="cls-17" d="M257.19,338.17l-24.25-26.55a14.8,14.8,0,0,1,20.93.46l.43.47,3.69,4.21a15.58,15.58,0,0,1-.8,21.41Z"/><path id="Path-25" class="cls-18" d="M250.27,330.59q-2.69-18.33-11.64-25.33t-5.69,6.36Z"/></g><g id="Group-72"><g id="Rectangle-19" data-name="Rectangle"><path id="path-476-2" data-name="path-476" class="cls-17" d="M229.57,353.14h0c.52,9.6,13.34,7.94,12.83,0h5.74A19.36,19.36,0,0,1,267.5,372.5a19.87,19.87,0,0,1-.26,3.18l-6.16,37h0L265.74,438c-19.07,9.9-42.24,10.17-50.91.27l3.07-26.52q-2.43-10.41-4.32-15.86c-1.93-5.54,1-18.29,1-19.58a39.2,39.2,0,0,0-.61-4.88,15.77,15.77,0,0,1,15.56-18.33Z"/></g><g class="cls-19"><polygon id="Path-23" class="cls-13" points="258.14 377.18 269.29 426.47 269.29 382.87 258.14 377.18"/></g></g><g id="Group-110"><path id="Path-94" class="cls-7" d="M187.61,282.38,184.08,278l-4-5.72q-2.43-4.66-3.16-4.67c-.49,0,0,1.73,1.43,5.21l1.45,4.15-4.23-5.27q-2.64-4.81-3.41-4.57t1.62,5l3.14,5.59-4.33-4.17c-1.93-2.51-3.18-3.64-3.73-3.4s.23,1.81,2.37,4.72l3.4,4.34,1.76,2.25,7.67,2.58Z"/><path id="Path-88" class="cls-7" d="M187.67,287.17l14.69,41.42a4.52,4.52,0,0,0,.62,1.17l19.38,25.86h0L214.72,372l-23.78-33.49a4.26,4.26,0,0,1-.74-1.77q-8.31-46.1-10.1-48.83c-1.8-2.77-7.34-7.34-8.35-8.08s-3.75-3.51-3.45-3.91,2.07.51,5.09,3.06l12,3.43c2.07-1.29,3.51-2.14,4.35-2.56,2.6-1.28,3.31-1.27,3.72-.87s-1.19,1.51-3.07,3.43A20.6,20.6,0,0,0,187.67,287.17Z"/><polygon id="Path-87" class="cls-17" points="215.41 375.29 200.34 355.82 210.48 338.78 223.08 354.86 215.41 375.29"/></g><g id="Group-111"><path id="Path-91" class="cls-7" d="M358.75,402.69l4.92,3.33c-.24.53-.77.65-1.6.35s-2.94-1.35-6.33-3.15l3.52,3.6c-.37.18-1,0-1.9-.45s-2.76-1.71-5.59-3.68Z"/><g id="Group-113"><path id="Path-93" class="cls-20" d="M369.9,415.43l5.46-.39a9.5,9.5,0,0,0,5-1.88h0l-8.18-4-2.81,5.49a.53.53,0,0,0,.23.71A.46.46,0,0,0,369.9,415.43Z"/><g id="Group-112"><polygon id="Rectangle-20" data-name="Rectangle" class="cls-20" points="370.19 405.16 373.11 406.42 371.05 410.83 368.18 409.49 370.19 405.16"/><path id="Rectangle-21" data-name="Rectangle" class="cls-21" d="M369.78,405.62l3.22,1.49a.27.27,0,0,1,.12.35.26.26,0,0,1-.35.13l-3.21-1.5a.27.27,0,0,1-.13-.35A.26.26,0,0,1,369.78,405.62Z"/><path id="Rectangle-22" data-name="Rectangle" class="cls-21" d="M369.33,406.57l3.22,1.5a.27.27,0,0,1,.13.35.27.27,0,0,1-.35.13l-3.22-1.5a.27.27,0,0,1-.13-.35A.27.27,0,0,1,369.33,406.57Z"/><path id="Rectangle-23" data-name="Rectangle" class="cls-21" d="M368.89,407.53l3.21,1.5a.26.26,0,1,1-.22.48l-3.21-1.5a.26.26,0,1,1,.22-.48Z"/><path id="Rectangle-24" data-name="Rectangle" class="cls-21" d="M368.44,408.49l3.22,1.5a.26.26,0,0,1-.23.47l-3.21-1.5a.26.26,0,0,1-.13-.35A.26.26,0,0,1,368.44,408.49Z"/></g><path id="Combined-Shape" class="cls-21" d="M380.48,402.63l.92.72a5.34,5.34,0,0,1,2.05,4v.26L378,405l-4.56,8.19a1.06,1.06,0,0,1-1.44.41l0,0-4-2.46a9.52,9.52,0,0,0-4.93-1.37h-27a3.63,3.63,0,0,1-3.62-3.63,3.37,3.37,0,0,1,3.37-3.37h.24l28.87,2.07a9.54,9.54,0,0,0,4.59-.82l4.67-2.11A6.24,6.24,0,0,1,380.48,402.63ZM370,405.48a1.06,1.06,0,0,0-1.41.51h0l-.89,1.91a1.06,1.06,0,0,0,.51,1.41h0l2.87,1.34a1.07,1.07,0,0,0,1.41-.52h0l.89-1.91a1.05,1.05,0,0,0-.51-1.4h0Zm-33.78,2.86a2.12,2.12,0,1,0-2.11-2.11A2.11,2.11,0,0,0,336.19,408.34Z"/></g><path id="Path-89" class="cls-7" d="M263.72,361.11l33.63,25.57,45.7,14.53h16.77l7.16,3.42a.4.4,0,0,1,.19.53.43.43,0,0,1-.23.21,2.81,2.81,0,0,1-1.81,0l-6-2h0L352.4,405,351.18,407q6.06,3.26,5.44,3.83c-.6.57-9.32-.47-10.77-1A31,31,0,0,1,341,407l-48.85-8.23-34.05-21.07Z"/><polygon id="Path-90" class="cls-17" points="261.51 358.53 281 373.86 271.82 387.17 256.49 377.18 261.51 358.53"/></g><path id="Rectangle-25" data-name="Rectangle" class="cls-22" d="M219.11,394.12l4.37-41,4.56-.77v35.22a6.53,6.53,0,0,0,6.53,6.53h3.88a6.53,6.53,0,0,0,6.53-6.53c0-.12,0-.23,0-.34l-1.82-34.88h0l5.83.77,4.82,41c3.67,4,6.09,4,10,5.83l-1.53,12.73C274.37,450.2,272.77,514,275.78,587.15H256.22l-13.83-110.4-4.08,110.4H219.66Q208.73,459,215.37,414.5q.7-4.65-3-15.9C215.18,398.6,216.86,397.18,219.11,394.12Z"/><path id="Rectangle-26" data-name="Rectangle" class="cls-13" d="M225.62,406.58h24.2a2.43,2.43,0,0,1,2.42,2.42v26.62a2.42,2.42,0,0,1-2.42,2.42h-24.2a2.42,2.42,0,0,1-2.42-2.42V409A2.42,2.42,0,0,1,225.62,406.58Z"/><g id="Group-59"><path id="Oval-3" data-name="Oval" class="cls-13" d="M223.93,398.11a2.18,2.18,0,1,0-2.18-2.18A2.18,2.18,0,0,0,223.93,398.11Z"/><circle id="Oval-4" data-name="Oval" class="cls-23" cx="222.95" cy="395.93" r="2.18"/></g><g id="Group-59-2" data-name="Group-59"><path id="Oval-5" data-name="Oval" class="cls-13" d="M250.06,398.11a2.18,2.18,0,1,0-2.17-2.18A2.17,2.17,0,0,0,250.06,398.11Z"/><circle id="Oval-6" data-name="Oval" class="cls-23" cx="249.09" cy="395.93" r="2.18"/></g><polygon id="Path-26" class="cls-13" points="242.39 476.75 237.32 450.2 232.26 587.15 238.31 587.15 242.39 476.75"/><line id="Path-27-2" data-name="Path-27" class="cls-9" x1="234.68" y1="603.79" x2="204.57" y2="603.79"/></g><g id="Group-109"><g id="Group-93"><ellipse id="Oval-7" data-name="Oval" class="cls-24" cx="416.44" cy="596.64" rx="6.16" ry="10.56"/><polygon id="Rectangle-27" data-name="Rectangle" class="cls-24" points="417.1 586.08 410.28 586.08 410.28 607.2 417.1 607.2 417.1 586.08"/><ellipse id="Oval-8" data-name="Oval" class="cls-25" cx="410.28" cy="596.64" rx="6.16" ry="10.56"/><path id="Oval-9" data-name="Oval" class="cls-26" d="M409.87,603.24c-1.82,0-3.3-3-3.3-6.6s1.48-6.6,3.3-6.6,3.3,3,3.3,6.6S411.69,603.24,409.87,603.24Z"/><path id="Oval-10" data-name="Oval" class="cls-24" d="M411.16,598.86c-.61,0-1.1-1-1.1-2.2s.49-2.2,1.1-2.2,1.1,1,1.1,2.2S411.76,598.86,411.16,598.86Z"/></g><g id="Group-93-2" data-name="Group-93"><ellipse id="Oval-11" data-name="Oval" class="cls-24" cx="460.44" cy="596.64" rx="6.16" ry="10.56"/><polygon id="Rectangle-28" data-name="Rectangle" class="cls-24" points="461.1 586.08 454.28 586.08 454.28 607.2 461.1 607.2 461.1 586.08"/><ellipse id="Oval-12" data-name="Oval" class="cls-25" cx="454.28" cy="596.64" rx="6.16" ry="10.56"/><path id="Oval-13" data-name="Oval" class="cls-26" d="M453.87,603.24c-1.82,0-3.3-3-3.3-6.6s1.48-6.6,3.3-6.6,3.3,3,3.3,6.6S455.69,603.24,453.87,603.24Z"/><path id="Oval-14" data-name="Oval" class="cls-24" d="M455.16,598.86c-.61,0-1.1-1-1.1-2.2s.49-2.2,1.1-2.2,1.1,1,1.1,2.2S455.76,598.86,455.16,598.86Z"/></g><rect id="Rectangle-29" data-name="Rectangle" class="cls-5" x="398.4" y="416.68" width="72.6" height="173.8"/><rect id="Rectangle-30" data-name="Rectangle" class="cls-2" x="394" y="416.68" width="72.6" height="173.8"/><polygon id="Path-85" class="cls-13" points="383 422.18 463.78 478.95 384.11 481.58 463.85 537.08 384.11 537.08 466.6 588.95 466.6 422.18 383 422.18"/><rect id="Rectangle-31" data-name="Rectangle" class="cls-3" x="321.4" y="416.68" width="154" height="11"/><rect id="Rectangle-32" data-name="Rectangle" class="cls-3" x="321.4" y="476.08" width="154" height="11"/><rect id="Rectangle-33" data-name="Rectangle" class="cls-3" x="321.4" y="535.48" width="154" height="11"/><rect id="Rectangle-34" data-name="Rectangle" class="cls-5" x="321.4" y="590.48" width="154" height="11"/><rect id="Rectangle-35" data-name="Rectangle" class="cls-5" x="330.2" y="416.68" width="72.6" height="173.8"/><rect id="Rectangle-36" data-name="Rectangle" class="cls-3" x="325.8" y="416.68" width="72.6" height="173.8"/><g id="Group-93-3" data-name="Group-93"><ellipse id="Oval-15" data-name="Oval" class="cls-24" cx="339.44" cy="596.64" rx="6.16" ry="10.56"/><polygon id="Rectangle-37" data-name="Rectangle" class="cls-24" points="340.1 586.08 333.28 586.08 333.28 607.2 340.1 607.2 340.1 586.08"/><ellipse id="Oval-16" data-name="Oval" class="cls-25" cx="333.28" cy="596.64" rx="6.16" ry="10.56"/><path id="Oval-17" data-name="Oval" class="cls-26" d="M332.87,603.24c-1.82,0-3.3-3-3.3-6.6s1.48-6.6,3.3-6.6,3.3,3,3.3,6.6S334.69,603.24,332.87,603.24Z"/><path id="Oval-18" data-name="Oval" class="cls-24" d="M334.16,598.86c-.61,0-1.1-1-1.1-2.2s.49-2.2,1.1-2.2,1.1,1,1.1,2.2S334.76,598.86,334.16,598.86Z"/></g><g id="Group-93-4" data-name="Group-93"><ellipse id="Oval-19" data-name="Oval" class="cls-24" cx="383.44" cy="596.64" rx="6.16" ry="10.56"/><polygon id="Rectangle-38" data-name="Rectangle" class="cls-24" points="384.1 586.08 377.28 586.08 377.28 607.2 384.1 607.2 384.1 586.08"/><ellipse id="Oval-20" data-name="Oval" class="cls-25" cx="377.28" cy="596.64" rx="6.16" ry="10.56"/><path id="Oval-21" data-name="Oval" class="cls-26" d="M376.87,603.24c-1.82,0-3.3-3-3.3-6.6s1.48-6.6,3.3-6.6,3.3,3,3.3,6.6S378.69,603.24,376.87,603.24Z"/><path id="Oval-22" data-name="Oval" class="cls-24" d="M378.16,598.86c-.61,0-1.1-1-1.1-2.2s.49-2.2,1.1-2.2,1.1,1,1.1,2.2S378.76,598.86,378.16,598.86Z"/></g></g><g id="Group-36"><polygon id="Rectangle-39" data-name="Rectangle" class="cls-4" points="292.8 165.25 385.2 165.25 385.2 290.65 292.8 290.65 292.8 165.25"/><g id="Group-11"><ellipse id="Oval-23" data-name="Oval" class="cls-27" cx="303.8" cy="267.55" rx="37.4" ry="62.7"/><polygon id="Rectangle-40" data-name="Rectangle" class="cls-27" points="301.6 204.85 341.2 204.85 341.2 330.25 301.6 330.25 301.6 204.85"/><ellipse id="Oval-24" data-name="Oval" class="cls-21" cx="339" cy="267.55" rx="37.4" ry="62.7"/><g id="Group-10"><g id="Oval-25" data-name="Oval"><ellipse id="path-478-5" data-name="path-478" class="cls-28" cx="341.2" cy="268.65" rx="22" ry="41.8"/></g><g class="cls-29"><path id="Path-5" class="cls-30" d="M335.08,243.09l1.34,9.61a2.42,2.42,0,0,1-2.07,2.73,1.83,1.83,0,0,1-.33,0h-6.41a2.41,2.41,0,0,1-2.14-3.54l5.07-9.62a2.42,2.42,0,0,1,4.54.8Z"/></g><g class="cls-29"><path id="Path-5-2" data-name="Path-5" class="cls-30" d="M347.32,243.09,346,252.7a2.42,2.42,0,0,0,2.07,2.73,1.83,1.83,0,0,0,.33,0h6.41a2.41,2.41,0,0,0,2.14-3.54l-5.07-9.62a2.42,2.42,0,0,0-4.54.8Z"/></g><g class="cls-29"><path id="Path-5-3" data-name="Path-5" class="cls-30" d="M347.32,294.22,346,284.61a2.42,2.42,0,0,1,2.07-2.73l.33,0h6.41a2.43,2.43,0,0,1,2.42,2.42,2.45,2.45,0,0,1-.28,1.13L351.86,295a2.42,2.42,0,0,1-3.27,1A2.45,2.45,0,0,1,347.32,294.22Z"/></g><g class="cls-29"><path id="Path-5-4" data-name="Path-5" class="cls-30" d="M335.08,294.22l1.34-9.61a2.42,2.42,0,0,0-2.07-2.73l-.33,0h-6.41a2.43,2.43,0,0,0-2.42,2.42,2.45,2.45,0,0,0,.28,1.13l5.07,9.61a2.42,2.42,0,0,0,3.27,1A2.45,2.45,0,0,0,335.08,294.22Z"/></g></g></g><g id="Group-11-2" data-name="Group-11"><ellipse id="Oval-26" data-name="Oval" class="cls-27" cx="105.8" cy="267.55" rx="37.4" ry="62.7"/><polygon id="Rectangle-41" data-name="Rectangle" class="cls-27" points="103.6 204.85 143.2 204.85 143.2 330.25 103.6 330.25 103.6 204.85"/><ellipse id="Oval-27" data-name="Oval" class="cls-21" cx="141" cy="267.55" rx="37.4" ry="62.7"/><g id="Group-10-2" data-name="Group-10"><g id="Oval-28" data-name="Oval"><ellipse id="path-480-5" data-name="path-480" class="cls-27" cx="143.2" cy="268.65" rx="22" ry="41.8"/></g><g class="cls-31"><path id="Path-5-5" data-name="Path-5" class="cls-30" d="M137.08,243.09l1.34,9.61a2.42,2.42,0,0,1-2.07,2.73,1.83,1.83,0,0,1-.33,0h-6.41a2.41,2.41,0,0,1-2.14-3.54l5.07-9.62a2.42,2.42,0,0,1,4.54.8Z"/></g><g class="cls-31"><path id="Path-5-6" data-name="Path-5" class="cls-30" d="M149.32,243.09,148,252.7a2.42,2.42,0,0,0,2.07,2.73,1.83,1.83,0,0,0,.33,0h6.41a2.41,2.41,0,0,0,2.14-3.54l-5.07-9.62a2.42,2.42,0,0,0-4.54.8Z"/></g><g class="cls-31"><path id="Path-5-7" data-name="Path-5" class="cls-30" d="M149.32,294.22,148,284.61a2.42,2.42,0,0,1,2.07-2.73l.33,0h6.41a2.43,2.43,0,0,1,2.42,2.42,2.45,2.45,0,0,1-.28,1.13L153.86,295a2.42,2.42,0,0,1-3.27,1A2.45,2.45,0,0,1,149.32,294.22Z"/></g><g class="cls-31"><path id="Path-5-8" data-name="Path-5" class="cls-30" d="M137.08,294.22l1.34-9.61a2.42,2.42,0,0,0-2.07-2.73l-.33,0h-6.41a2.43,2.43,0,0,0-2.42,2.42,2.45,2.45,0,0,0,.28,1.13l5.07,9.61a2.42,2.42,0,0,0,3.27,1A2.45,2.45,0,0,0,137.08,294.22Z"/></g></g></g><polygon id="Rectangle-42" data-name="Rectangle" class="cls-4" points="644.8 165.25 737.2 165.25 737.2 292.85 644.8 292.85 644.8 165.25"/><g id="Group-11-3" data-name="Group-11"><ellipse id="Oval-29" data-name="Oval" class="cls-27" cx="655.8" cy="267.55" rx="37.4" ry="62.7"/><polygon id="Rectangle-43" data-name="Rectangle" class="cls-27" points="653.6 204.85 693.2 204.85 693.2 330.25 653.6 330.25 653.6 204.85"/><ellipse id="Oval-30" data-name="Oval" class="cls-21" cx="691" cy="267.55" rx="37.4" ry="62.7"/><g id="Group-10-3" data-name="Group-10"><g id="Oval-31" data-name="Oval"><ellipse id="path-482-5" data-name="path-482" class="cls-28" cx="693.2" cy="268.65" rx="22" ry="41.8"/></g><g class="cls-32"><path id="Path-5-9" data-name="Path-5" class="cls-30" d="M687.08,243.09l1.34,9.61a2.42,2.42,0,0,1-2.07,2.73,1.83,1.83,0,0,1-.33,0h-6.41a2.41,2.41,0,0,1-2.14-3.54l5.07-9.62a2.42,2.42,0,0,1,4.54.8Z"/></g><g class="cls-32"><path id="Path-5-10" data-name="Path-5" class="cls-30" d="M699.32,243.09,698,252.7a2.42,2.42,0,0,0,2.07,2.73,1.83,1.83,0,0,0,.33,0h6.41a2.41,2.41,0,0,0,2.14-3.54l-5.07-9.62a2.42,2.42,0,0,0-4.54.8Z"/></g><g class="cls-32"><path id="Path-5-11" data-name="Path-5" class="cls-30" d="M699.32,294.22,698,284.61a2.42,2.42,0,0,1,2.07-2.73l.33,0h6.41a2.43,2.43,0,0,1,2.42,2.42,2.45,2.45,0,0,1-.28,1.13L703.86,295a2.42,2.42,0,0,1-3.27,1A2.45,2.45,0,0,1,699.32,294.22Z"/></g><g class="cls-32"><path id="Path-5-12" data-name="Path-5" class="cls-30" d="M687.08,294.22l1.34-9.61a2.42,2.42,0,0,0-2.07-2.73l-.33,0h-6.41a2.43,2.43,0,0,0-2.42,2.42,2.45,2.45,0,0,0,.28,1.13l5.07,9.61a2.42,2.42,0,0,0,3.27,1A2.45,2.45,0,0,0,687.08,294.22Z"/></g></g></g><g id="Group-11-4" data-name="Group-11"><ellipse id="Oval-32" data-name="Oval" class="cls-27" cx="473.2" cy="267.55" rx="37.4" ry="62.7"/><polygon id="Rectangle-44" data-name="Rectangle" class="cls-27" points="471 204.85 510.6 204.85 510.6 330.25 471 330.25 471 204.85"/><ellipse id="Oval-33" data-name="Oval" class="cls-21" cx="508.4" cy="267.55" rx="37.4" ry="62.7"/><g id="Group-10-4" data-name="Group-10"><g id="Oval-34" data-name="Oval"><ellipse id="path-484-3" data-name="path-484" class="cls-27" cx="510.6" cy="268.65" rx="22" ry="41.8"/></g><g class="cls-33"><path id="Path-5-13" data-name="Path-5" class="cls-30" d="M504.48,243.09l1.34,9.61a2.42,2.42,0,0,1-2.07,2.73,1.83,1.83,0,0,1-.33,0H497a2.41,2.41,0,0,1-2.14-3.54l5.07-9.62a2.42,2.42,0,0,1,4.54.8Z"/></g><g class="cls-33"><path id="Path-5-14" data-name="Path-5" class="cls-30" d="M516.72,243.09l-1.34,9.61a2.42,2.42,0,0,0,2.07,2.73,1.83,1.83,0,0,0,.33,0h6.41a2.41,2.41,0,0,0,2.14-3.54l-5.07-9.62a2.42,2.42,0,0,0-4.54.8Z"/></g></g></g><path id="Rectangle-45" data-name="Rectangle" class="cls-34" d="M154.66,92.65h9.9a20.75,20.75,0,0,1,20.64,18.6l.07.69h0l6.32,9a4.4,4.4,0,0,1-3.6,6.93H154.66a8.8,8.8,0,0,1-8.8-8.8v-17.6A8.8,8.8,0,0,1,154.66,92.65Z"/><g id="Group-20"><g id="Rectangle-46" data-name="Rectangle"><path id="path-486-23" data-name="path-486" class="cls-35" d="M292.11,35.45H532.69a13.2,13.2,0,0,1,13.2,13.18l.16,81.42h216.5a4.4,4.4,0,0,1,4.4,4.35q1.31,104,1.3,111.68a10.81,10.81,0,0,1,10.81,10.81v11.76a22,22,0,0,1-22,22H734.78a2.2,2.2,0,0,1-2.2-2.2V221a38.64,38.64,0,0,0-38.64-38.65,42.22,42.22,0,0,0-42.05,38.49l-5.21,59a2.21,2.21,0,0,1-2.2,2H382.21a2.2,2.2,0,0,1-2.2-2.2V218.81a38.64,38.64,0,0,0-38.64-38.65,42.13,42.13,0,0,0-42,38.5l-5.29,61.18a2.2,2.2,0,0,1-2.2,2H42a8.8,8.8,0,0,1-8.8-8.8V258.17a15.06,15.06,0,0,1,8.8-13.7h0V188.36a48.41,48.41,0,0,1,33.82-46.15l87.24-27.56h0l40.72-41.88A123.2,123.2,0,0,1,292.11,35.45Z"/></g><g class="cls-36"><path id="Rectangle-47" data-name="Rectangle" class="cls-24" d="M22.2,244.45H48.06a4.47,4.47,0,0,0,1.62-.3L70.48,236a4.43,4.43,0,0,1,1.61-.31H188.88a4.41,4.41,0,0,1,1.3.2l27.25,8.41a4.4,4.4,0,0,0,1.3.19h83.33l-.46,46.2H22.2Z"/></g><g class="cls-37"><path id="Rectangle-48" data-name="Rectangle" class="cls-38" d="M487.1,35.45H561v88H770.38a4.4,4.4,0,0,1,4.4,4.28q2.26,82.11,2.27,89.75a10.81,10.81,0,0,1,10.81,10.81v31.56a22,22,0,0,1-22,22H253.2a15.39,15.39,0,0,1-15.4-15.4v-8.28a15.06,15.06,0,0,1,8.8-13.7h0V188.36a48.41,48.41,0,0,1,33.82-46.15l87.24-27.56h0l18.25-26.27A123.21,123.21,0,0,1,487.1,35.45Z"/></g><g class="cls-39"><polygon id="Rectangle-49" data-name="Rectangle" class="cls-40" points="489.53 114.55 493.93 114.55 493.93 272.95 489.53 272.95 489.53 114.55"/></g><g class="cls-39"><polygon id="Rectangle-50" data-name="Rectangle" class="cls-40" points="372.93 114.55 377.33 114.55 377.33 272.95 372.93 272.95 372.93 114.55"/></g><g class="cls-39"><path id="Rectangle-51" data-name="Rectangle" class="cls-41" d="M341.35,134.45H531.2a4.4,4.4,0,0,1,4.34,3.68l.73,4.4a4.4,4.4,0,0,1-3.61,5.06,4.49,4.49,0,0,1-.73.06h-194a26,26,0,0,0-3.52.24l-43.83,5.91a2.2,2.2,0,0,1-1-4.25L320,138.27A61.79,61.79,0,0,1,341.35,134.45Z"/></g><g class="cls-39"><path id="Rectangle-52" data-name="Rectangle" class="cls-4" d="M473.23,46.92l57.94-2.08a4.39,4.39,0,0,1,4.55,4.23c0,.06,0,.11,0,.16v72a4.4,4.4,0,0,1-4.4,4.4h-155a4.39,4.39,0,0,1-3.52-7l23.53-31.47A100.51,100.51,0,0,1,473.23,46.92Z"/></g><g class="cls-39"><g id="Group-35"><g id="Rectangle-53" data-name="Rectangle"><path id="path-488-2" data-name="path-488" class="cls-42" d="M761.4,176.25h11v50.6h-11a8.8,8.8,0,0,1-8.8-8.8v-33A8.8,8.8,0,0,1,761.4,176.25Z"/></g><g class="cls-43"><path id="Rectangle-54" data-name="Rectangle" class="cls-44" d="M765.8,176.25h11v50.6h-11a8.8,8.8,0,0,1-8.8-8.8v-33A8.8,8.8,0,0,1,765.8,176.25Z"/></g></g></g><g class="cls-39"><rect id="Rectangle-55" data-name="Rectangle" class="cls-40" x="440.2" y="156.45" width="39.6" height="8.8"/></g><g class="cls-39"><rect id="Rectangle-56" data-name="Rectangle" class="cls-34" x="440.2" y="154.25" width="39.6" height="8.8"/></g><g class="cls-39"><polygon id="Rectangle-57" data-name="Rectangle" class="cls-40" points="546.05 128.11 551.56 128.11 551.56 284.31 546.05 284.31 546.05 128.11"/></g><g class="cls-39"><g id="Group-12"><g id="Rectangle-58" data-name="Rectangle"><path id="path-490-3" data-name="path-490" class="cls-45" d="M291.87,44.25H426.32c-34.52,14.89-50.58,41.18-66.42,67.61H183.65a2.19,2.19,0,0,1-1.54-3.76L214.52,76A110,110,0,0,1,291.87,44.25Z"/></g><g class="cls-46"><path id="Rectangle-59" data-name="Rectangle" class="cls-47" d="M280.87,48.65H407.2C380,67.82,366.94,89.83,351.1,116.26H172.65a2.19,2.19,0,0,1-1.54-3.76l32.41-32.06A110,110,0,0,1,280.87,48.65Z"/></g><g class="cls-48"><polygon id="Rectangle-60" data-name="Rectangle" class="cls-24" points="167.4 103.65 376.4 103.65 376.4 125.65 167.4 125.65 167.4 103.65"/></g></g></g><g class="cls-39"><path id="Rectangle-61" data-name="Rectangle" class="cls-4" d="M546.05,123.3H777.82v15.4H550.45a4.4,4.4,0,0,1-4.4-4.4v-11Z"/></g><g class="cls-49"><polygon id="Rectangle-62" data-name="Rectangle" class="cls-4" points="375.69 264.25 728.57 264.25 728.57 246.08 781.2 246.08 781.2 292.85 375.69 292.85 375.69 264.25"/></g><g class="cls-39"><g id="Group-45"><g id="Rectangle-63" data-name="Rectangle"><path id="path-492-2" data-name="path-492" class="cls-45" d="M458.26,57l24.07-3.3a4.4,4.4,0,0,1,5,3.76c0,.2,0,.4,0,.6v57.13a4.4,4.4,0,0,1-4.4,4.4H381.34a2.21,2.21,0,0,1-2.2-2.2,2.17,2.17,0,0,1,.57-1.47l29.85-33.14A80.29,80.29,0,0,1,458.26,57Z"/></g><g class="cls-50"><path id="Rectangle-64" data-name="Rectangle" class="cls-47" d="M453.86,61.44l24.07-3.3a4.4,4.4,0,0,1,5,3.76c0,.2,0,.4,0,.6v57.13a4.4,4.4,0,0,1-4.4,4.4H376.94a2.21,2.21,0,0,1-2.2-2.2,2.17,2.17,0,0,1,.57-1.47l29.85-33.14A80.29,80.29,0,0,1,453.86,61.44Z"/></g></g></g><g class="cls-39"><path id="Rectangle-65" data-name="Rectangle" class="cls-34" d="M411.44,90.45H438a4.4,4.4,0,0,1,4.4,4.4v26.4a4.4,4.4,0,0,1-4.4,4.4H376a6.23,6.23,0,0,1-6.23-6.23,8.19,8.19,0,0,1,6-7.89L385.2,109h0A27.86,27.86,0,0,1,411.44,90.45Z"/></g><g class="cls-39"><g id="Group-22"><g id="Rectangle-66" data-name="Rectangle"><path id="path-494-2" data-name="path-494" class="cls-51" d="M205.9,255.45h9.9a9.9,9.9,0,0,1,0,19.8h-9.9a9.9,9.9,0,0,1,0-19.8Z"/></g><g class="cls-52"><path id="Rectangle-67" data-name="Rectangle" class="cls-1" d="M200,255.45h9.9a9.9,9.9,0,0,1,0,19.8H200a9.9,9.9,0,0,1,0-19.8Z"/></g></g></g><g class="cls-39"><g id="Group-32"><g id="Rectangle-68" data-name="Rectangle"><path id="path-496-2" data-name="path-496" class="cls-51" d="M49.7,255.45h9.9a9.9,9.9,0,0,1,0,19.8H49.7a9.9,9.9,0,0,1,0-19.8Z"/></g><g class="cls-53"><path id="Rectangle-69" data-name="Rectangle" class="cls-1" d="M43.76,255.45h9.9a9.9,9.9,0,0,1,0,19.8h-9.9a9.9,9.9,0,0,1,0-19.8Z"/></g></g></g><g class="cls-39"><path id="Rectangle-70" data-name="Rectangle" class="cls-1" d="M196.06,169.65h64.17a4.12,4.12,0,0,1,4.12,4.13,4.07,4.07,0,0,1-.33,1.61l-.84,2a6.57,6.57,0,0,1-5.69,4l-61.3,3.56a2.2,2.2,0,0,1-2.32-2.07s0-.09,0-.13V171.85A2.21,2.21,0,0,1,196.06,169.65Z"/></g><g class="cls-39"><path id="Rectangle-71" data-name="Rectangle" class="cls-42" d="M250.61,169.65h9.62a4.12,4.12,0,0,1,4.12,4.13,4.07,4.07,0,0,1-.33,1.61l-.84,2a6.57,6.57,0,0,1-5.69,4l-10.27.6h0C247.54,177.84,248.07,173.72,250.61,169.65Z"/></g><g class="cls-39"><g id="Group-33"><g id="Rectangle-72" data-name="Rectangle"><path id="path-498-2" data-name="path-498" class="cls-51" d="M196.34,191.65h39.32a6.6,6.6,0,0,1,6.6,6.6v20.83a6.58,6.58,0,0,1-6,6.57l-29.46,2.64a8.8,8.8,0,0,1-9.53-7.74l-3.11-26.44a2.2,2.2,0,0,1,1.93-2.44Z"/></g><g class="cls-54"><path id="Rectangle-73" data-name="Rectangle" class="cls-1" d="M191.94,191.65h39.32a6.6,6.6,0,0,1,6.6,6.6v20.83a6.58,6.58,0,0,1-6,6.57l-29.46,2.64a8.8,8.8,0,0,1-9.53-7.74l-3.11-26.44a2.2,2.2,0,0,1,1.93-2.44Z"/></g></g></g><g class="cls-55"><g id="Group-34"><g id="Rectangle-74" data-name="Rectangle"><path id="path-500-2" data-name="path-500" class="cls-51" d="M68.19,191.65H28.86a6.61,6.61,0,0,0-6.6,6.6v20.83a6.59,6.59,0,0,0,6,6.57l29.46,2.64a8.78,8.78,0,0,0,9.52-7.74l3.11-26.44a2.19,2.19,0,0,0-1.92-2.44Z"/></g><g class="cls-56"><path id="Rectangle-75" data-name="Rectangle" class="cls-1" d="M63.79,191.65H24.46a6.61,6.61,0,0,0-6.6,6.6v20.83a6.59,6.59,0,0,0,6,6.57l29.46,2.64a8.78,8.78,0,0,0,9.52-7.74L66,194.11a2.19,2.19,0,0,0-1.92-2.44Z"/></g></g></g><g class="cls-57"><path id="Rectangle-76" data-name="Rectangle" class="cls-1" d="M4.22,169.65H68.46a2.2,2.2,0,0,1,2.2,2.2v10.87a2.19,2.19,0,0,1-2.2,2.2h-.12l-63-3.63a4.42,4.42,0,0,1-3.85-2.8l-1.19-3.1a4.22,4.22,0,0,1,3.93-5.74Z"/></g></g><path id="Rectangle-77" data-name="Rectangle" class="cls-4" d="M88.2,253.25h88a11,11,0,0,1,11,11v8.8h0l15,6.56a4.4,4.4,0,0,1,2.63,4l0,7a4.39,4.39,0,0,1-4.38,4.42H66.2a4.4,4.4,0,0,1-4.4-4.4v-7.18a4.39,4.39,0,0,1,2.43-3.93l13-6.49h0v-8.8A11,11,0,0,1,88.2,253.25Z"/><path id="Rectangle-78" data-name="Rectangle" class="cls-35" d="M39.8,281.85h253l-8.52,9.53a24.18,24.18,0,0,1-18,8.07H63.53A24.19,24.19,0,0,1,41.83,286l-2-4.11Z"/><path id="Rectangle-79" data-name="Rectangle" class="cls-34" d="M380,277.45H647a17.6,17.6,0,0,1-17.6,17.6h-234a15.39,15.39,0,0,1-15.4-15.4v-2.2Z"/><path id="Rectangle-80" data-name="Rectangle" class="cls-34" d="M732,277.45H776.8a17.6,17.6,0,0,1-17.6,17.6H736.37a4.4,4.4,0,0,1-4.4-4.4v-13.2Z"/><rect id="Rectangle-81" data-name="Rectangle" class="cls-4" x="77.2" y="169.65" width="110" height="15.4"/><path id="Rectangle-82" data-name="Rectangle" class="cls-4" d="M79.24,191.65H185.16a2.2,2.2,0,0,1,2.19,2l2.05,27.66h0l1.4,4.9a2.2,2.2,0,0,1-1.51,2.72,2.09,2.09,0,0,1-.61.08h-113a2.19,2.19,0,0,1-2.2-2.2,2.06,2.06,0,0,1,.08-.6l1.4-4.9h0l2-27.66A2.2,2.2,0,0,1,79.24,191.65Z"/><g id="Group-46"><g id="Rectangle-83" data-name="Rectangle"><path id="path-502-2" data-name="path-502" class="cls-45" d="M499.6,53.05h22a4.4,4.4,0,0,1,4.4,4.4v57.78a4.4,4.4,0,0,1-4.4,4.4h-22a4.4,4.4,0,0,1-4.4-4.4V57.45A4.4,4.4,0,0,1,499.6,53.05Z"/></g><g class="cls-58"><path id="Rectangle-84" data-name="Rectangle" class="cls-47" d="M495.2,57.45h22a4.4,4.4,0,0,1,4.4,4.4v57.78a4.4,4.4,0,0,1-4.4,4.4h-22a4.4,4.4,0,0,1-4.4-4.4V61.85A4.4,4.4,0,0,1,495.2,57.45Z"/></g></g></g><path id="Rectangle-85" data-name="Rectangle" class="cls-59" d="M405,295.05H609.6a4.4,4.4,0,0,1,4.4,4.4v8.8a4.4,4.4,0,0,1-4.4,4.4H405a4.4,4.4,0,0,1-4.4-4.4v-8.8A4.4,4.4,0,0,1,405,295.05Z"/><g id="Group-106-2" data-name="Group-106"><polygon id="Rectangle-86" data-name="Rectangle" class="cls-2" points="541.4 8.8 592 8.8 592 607.2 541.4 607.2 541.4 8.8"/><rect id="Rectangle-87" data-name="Rectangle" class="cls-60" x="559" y="352" width="46.2" height="74.8"/><path id="Rectangle-88" data-name="Rectangle" class="cls-61" d="M580.09,352H596.4a8.8,8.8,0,0,1,8.8,8.8V418a8.8,8.8,0,0,1-8.8,8.8H580.09a8.8,8.8,0,0,1-8.8-8.8V360.8A8.8,8.8,0,0,1,580.09,352Z"/><g id="Group-105"><polygon id="Rectangle-89" data-name="Rectangle" class="cls-24" points="598.82 407 596.4 405.93 583.17 405.93 581.01 407 581.01 408.76 598.82 408.76 598.82 407"/><polygon id="Rectangle-90" data-name="Rectangle" class="cls-24" points="598.82 413.6 596.4 412.53 583.17 412.53 581.01 413.6 581.01 415.36 598.82 415.36 598.82 413.6"/></g><g id="Group-107"><circle id="Oval-35" data-name="Oval" class="cls-27" cx="588.7" cy="368.5" r="5.5"/><circle id="Oval-36" data-name="Oval" class="cls-21" cx="590.9" cy="368.5" r="5.5"/></g><g id="Group-107-2" data-name="Group-107"><circle id="Oval-37" data-name="Oval" class="cls-27" cx="588.7" cy="390.5" r="5.5"/><circle id="Oval-38" data-name="Oval" class="cls-21" cx="590.9" cy="390.5" r="5.5"/></g><polygon id="Rectangle-91" data-name="Rectangle" class="cls-3" points="541.4 8.8 554.6 8.8 554.6 607.2 541.4 607.2 541.4 8.8"/><path id="Rectangle-92" data-name="Rectangle" class="cls-5" d="M530.4,580.8h74.8a4.4,4.4,0,0,1,4.4,4.4v22H526v-22A4.4,4.4,0,0,1,530.4,580.8Z"/><path id="Rectangle-93" data-name="Rectangle" class="cls-2" d="M530.4,580.8H559a4.4,4.4,0,0,1,4.4,4.4v22H526v-22A4.4,4.4,0,0,1,530.4,580.8Z"/><rect id="Rectangle-94" data-name="Rectangle" class="cls-5" x="512.8" y="600.6" width="112.2" height="6.6"/><path id="Rectangle-95" data-name="Rectangle" class="cls-2" d="M556.8,0h42.76a2.19,2.19,0,0,1,2.2,2.2V19.8a2.19,2.19,0,0,1-2.2,2.2H556.8a2.19,2.19,0,0,1-2.2-2.2V2.2A2.19,2.19,0,0,1,556.8,0Z"/><path id="Rectangle-96" data-name="Rectangle" class="cls-3" d="M534.8,0H559a2.2,2.2,0,0,1,2.2,2.2V19.8A2.2,2.2,0,0,1,559,22H534.8a2.19,2.19,0,0,1-2.2-2.2V2.2A2.19,2.19,0,0,1,534.8,0Z"/></g></g></g></g></svg>