<svg xmlns="http://www.w3.org/2000/svg" viewBox="0 0 702.5 182.77"><defs><style>.cls-1{fill:#6f00ff;}.cls-2{fill:#3f00a3;}.cls-3{fill:#9b00ff;}.cls-4{fill:#081631;}</style></defs><g id="Layer_2" data-name="Layer 2"><g id="Layer_2-2" data-name="Layer 2"><rect class="cls-1" x="0.02" width="44.51" height="182.67" rx="10"/><path class="cls-2" d="M196.68,164.89,120,73.51a10.17,10.17,0,0,0-7.81-3.64H88a10.19,10.19,0,0,0-7.81,16.75l77.62,92.51a10.2,10.2,0,0,0,7.81,3.64h22.72A10.88,10.88,0,0,0,196.68,164.89Z"/><path class="cls-3" d="M80,73.42,2.4,165.93a10.2,10.2,0,0,0,7.82,16.75H34.41A10.18,10.18,0,0,0,42.22,179l77.63-92.51A10.2,10.2,0,0,0,112,69.78H87.84A10.2,10.2,0,0,0,80,73.42Z"/><rect class="cls-1" x="155.42" width="44.51" height="182.77" rx="9.97"/><path class="cls-4" d="M294.3,126.72a3.17,3.17,0,0,1-2.35-.85,4.28,4.28,0,0,1-1.15-2.15l-11.9-64.1a2.34,2.34,0,0,0,0-.5,1.53,1.53,0,0,1-.05-.3,2,2,0,0,1,.65-1.5,2.09,2.09,0,0,1,1.45-.6h8.8c1.67,0,2.6.67,2.8,2l8.3,45.3,9-29.3a5.52,5.52,0,0,1,1.05-1.65,2.87,2.87,0,0,1,2.25-.85h5.4a2.84,2.84,0,0,1,2.3.85,4.24,4.24,0,0,1,.9,1.65l9.1,29.2,8.3-45.2c.2-1.33,1.13-2,2.8-2h8.8a1.92,1.92,0,0,1,1.4.6,2,2,0,0,1,.6,1.5v.3a1.52,1.52,0,0,1-.1.5l-11.9,64.1a3.58,3.58,0,0,1-1.1,2.15,3.34,3.34,0,0,1-2.4.85h-6.7a3.27,3.27,0,0,1-2.35-.8,4.12,4.12,0,0,1-1.15-1.7l-11.2-33.4-11.2,33.4a5.75,5.75,0,0,1-1.2,1.7,3.22,3.22,0,0,1-2.4.8Z"/><path class="cls-4" d="M365.7,126.72a2.39,2.39,0,0,1-2.4-2.4V58.12a2.39,2.39,0,0,1,2.4-2.4h8.9a2.3,2.3,0,0,1,1.75.7,2.44,2.44,0,0,1,.65,1.7v22.8a21.3,21.3,0,0,1,6.6-5.2,20.92,20.92,0,0,1,9.6-2,20.2,20.2,0,0,1,10.65,2.75,18.59,18.59,0,0,1,7,7.75,26.57,26.57,0,0,1,2.5,12v28.1a2.39,2.39,0,0,1-2.4,2.4h-9a2.39,2.39,0,0,1-2.4-2.4V96.82c0-3.86-1-6.9-2.85-9.1s-4.65-3.3-8.25-3.3a11,11,0,0,0-8.35,3.3Q377,91,377,96.82v27.5a2.41,2.41,0,0,1-.65,1.7,2.26,2.26,0,0,1-1.75.7Z"/><path class="cls-4" d="M448.5,127.72q-11.1,0-17.6-6.4t-7-18.2a25.29,25.29,0,0,1-.1-2.55,22.54,22.54,0,0,1,.1-2.45,29.71,29.71,0,0,1,3.45-13,21.08,21.08,0,0,1,8.45-8.45,26.16,26.16,0,0,1,12.7-3,25.75,25.75,0,0,1,13.6,3.35,21.34,21.34,0,0,1,8.3,9.3,32.06,32.06,0,0,1,2.8,13.75v2.1a2.32,2.32,0,0,1-.7,1.7,2.43,2.43,0,0,1-1.8.7H437.5v.8a17.35,17.35,0,0,0,1.35,6.45,11.15,11.15,0,0,0,3.7,4.75,9.59,9.59,0,0,0,5.85,1.8,11.48,11.48,0,0,0,4.7-.85,11.29,11.29,0,0,0,3.1-1.95,12.83,12.83,0,0,0,1.7-1.8,4.77,4.77,0,0,1,1.45-1.45,4.25,4.25,0,0,1,1.65-.25h8.6a2.36,2.36,0,0,1,1.65.6,1.71,1.71,0,0,1,.55,1.5,8.45,8.45,0,0,1-1.65,3.9,19.42,19.42,0,0,1-4.45,4.5,24.84,24.84,0,0,1-7.25,3.65A31.34,31.34,0,0,1,448.5,127.72Zm-11-31.5h22.1v-.3a16.47,16.47,0,0,0-1.3-6.8,10.8,10.8,0,0,0-3.8-4.6,10.58,10.58,0,0,0-15.75,4.6,17.16,17.16,0,0,0-1.25,6.8Z"/><path class="cls-4" d="M506.2,127.72q-11.1,0-17.6-6.4t-7-18.2a25.29,25.29,0,0,1-.1-2.55,22.54,22.54,0,0,1,.1-2.45,29.58,29.58,0,0,1,3.45-13,21.08,21.08,0,0,1,8.45-8.45,26.16,26.16,0,0,1,12.7-3,25.75,25.75,0,0,1,13.6,3.35,21.34,21.34,0,0,1,8.3,9.3,32.06,32.06,0,0,1,2.8,13.75v2.1a2.32,2.32,0,0,1-.7,1.7,2.43,2.43,0,0,1-1.8.7H495.2v.8a17.35,17.35,0,0,0,1.35,6.45,11.07,11.07,0,0,0,3.7,4.75,9.59,9.59,0,0,0,5.85,1.8,11.48,11.48,0,0,0,4.7-.85,11.29,11.29,0,0,0,3.1-1.95,12.83,12.83,0,0,0,1.7-1.8,4.77,4.77,0,0,1,1.45-1.45,4.25,4.25,0,0,1,1.65-.25h8.6a2.36,2.36,0,0,1,1.65.6,1.71,1.71,0,0,1,.55,1.5,8.45,8.45,0,0,1-1.65,3.9,19.42,19.42,0,0,1-4.45,4.5,24.84,24.84,0,0,1-7.25,3.65A31.34,31.34,0,0,1,506.2,127.72Zm-11-31.5h22.1v-.3a16.63,16.63,0,0,0-1.3-6.8,10.88,10.88,0,0,0-3.8-4.6,10.58,10.58,0,0,0-15.75,4.6,17,17,0,0,0-1.25,6.8Z"/><path class="cls-4" d="M544,126.72a2.39,2.39,0,0,1-2.4-2.4V58.12a2.39,2.39,0,0,1,2.4-2.4h8.3a2.39,2.39,0,0,1,2.4,2.4v66.2a2.39,2.39,0,0,1-2.4,2.4Z"/><path class="cls-4" d="M591.5,126.72a22,22,0,0,1-10.1-2.1,13.3,13.3,0,0,1-6.1-6.25,23.64,23.64,0,0,1-2-10.35V85.32h-7.9a2.39,2.39,0,0,1-2.4-2.4v-5.8a2.39,2.39,0,0,1,2.4-2.4h7.9V58.12a2.4,2.4,0,0,1,.65-1.7,2.28,2.28,0,0,1,1.75-.7h8.1a2.39,2.39,0,0,1,2.4,2.4v16.6h12.5a2.39,2.39,0,0,1,2.4,2.4v5.8a2.39,2.39,0,0,1-2.4,2.4H586.2V107a11.92,11.92,0,0,0,1.45,6.4c1,1.54,2.65,2.3,5.05,2.3h6.9a2.39,2.39,0,0,1,2.4,2.4v6.2a2.39,2.39,0,0,1-2.4,2.4Z"/><path class="cls-4" d="M633.3,127.72q-11.1,0-17.6-6.4t-7-18.2a25.29,25.29,0,0,1-.1-2.55,22.54,22.54,0,0,1,.1-2.45,29.58,29.58,0,0,1,3.45-13,21.08,21.08,0,0,1,8.45-8.45,26.16,26.16,0,0,1,12.7-3,25.75,25.75,0,0,1,13.6,3.35,21.34,21.34,0,0,1,8.3,9.3,32.06,32.06,0,0,1,2.8,13.75v2.1a2.32,2.32,0,0,1-.7,1.7,2.43,2.43,0,0,1-1.8.7H622.3v.8a17.35,17.35,0,0,0,1.35,6.45,11.07,11.07,0,0,0,3.7,4.75,9.59,9.59,0,0,0,5.85,1.8,11.48,11.48,0,0,0,4.7-.85,11.29,11.29,0,0,0,3.1-1.95,12.83,12.83,0,0,0,1.7-1.8,4.77,4.77,0,0,1,1.45-1.45,4.25,4.25,0,0,1,1.65-.25h8.6a2.36,2.36,0,0,1,1.65.6,1.71,1.71,0,0,1,.55,1.5,8.45,8.45,0,0,1-1.65,3.9,19.42,19.42,0,0,1-4.45,4.5,24.84,24.84,0,0,1-7.25,3.65A31.34,31.34,0,0,1,633.3,127.72Zm-11-31.5h22.1v-.3a16.63,16.63,0,0,0-1.3-6.8,10.88,10.88,0,0,0-3.8-4.6,10.58,10.58,0,0,0-15.75,4.6,17,17,0,0,0-1.25,6.8Z"/><path class="cls-4" d="M671,126.72a2.39,2.39,0,0,1-2.41-2.4V77.22a2.47,2.47,0,0,1,.7-1.8,2.36,2.36,0,0,1,1.71-.7h8.09a2.51,2.51,0,0,1,1.75.7,2.36,2.36,0,0,1,.75,1.8v4.1a15.14,15.14,0,0,1,5.95-4.9,19.9,19.9,0,0,1,8.46-1.7h4.09a2.28,2.28,0,0,1,1.75.7,2.4,2.4,0,0,1,.66,1.7v7.2a2.37,2.37,0,0,1-.66,1.7,2.25,2.25,0,0,1-1.75.7h-7.8q-4.8,0-7.45,2.7a10.14,10.14,0,0,0-2.64,7.4v27.5a2.32,2.32,0,0,1-.7,1.7,2.43,2.43,0,0,1-1.8.7Z"/></g></g></svg>