<svg xmlns="http://www.w3.org/2000/svg" viewBox="0 0 716.52 182.77"><defs><style>.cls-1{fill:#6500e6;}.cls-2{fill:#4e00b4;}.cls-3{fill:#9b4cff;}.cls-4{fill:#0b132a;}</style></defs><g id="Layer_2" data-name="Layer 2"><g id="Layer_2-2" data-name="Layer 2"><path class="cls-1" d="M32.51,182.44c-.16,0-.33.06-.49.09A4.21,4.21,0,0,0,32.51,182.44Z"/><path class="cls-1" d="M.05,173.5c.34,4.58,3.4,8.27,7.36,9C3.28,181.69.45,177.8.05,173.5Z"/><path class="cls-1" d="M39.53,115.74V10c0-5.52-4-10-8.88-10H8.89C4,0,0,4.48,0,10V171.94a10.83,10.83,0,0,1,2.12-6Z"/><path class="cls-1" d="M32.6,182.42A8.83,8.83,0,0,0,37.54,179l0,.06A9,9,0,0,1,32.6,182.42Z"/><path class="cls-1" d="M8.06,182.62l-.18,0Z"/><path class="cls-2" d="M138,115.72,106.56,73.51a9.59,9.59,0,0,0-1.51-1.6,11.08,11.08,0,0,1,1.37,14.62L88.78,110.21l50.66,68a10.88,10.88,0,0,1-1.43-5.43Z"/><path class="cls-3" d="M105.05,71.91a8.29,8.29,0,0,0-5.57-2.13H78a8.68,8.68,0,0,0-6.94,3.64L39.53,115.74,2.13,165.93a10.83,10.83,0,0,0-2.12,6,11.57,11.57,0,0,0,0,1.56c.4,4.3,3.23,8.19,7.36,9l.47.08.18,0a8.31,8.31,0,0,0,1,.06H30.55a8,8,0,0,0,1.47-.15c.16,0,.33-.05.49-.09l.09,0A9,9,0,0,0,37.49,179l0-.06,51.24-68.77,17.64-23.68A11.08,11.08,0,0,0,105.05,71.91Z"/><path class="cls-1" d="M168.65,0H146.89C142,0,138,4.48,138,10V172.77a10.88,10.88,0,0,0,1.43,5.43,8.67,8.67,0,0,0,7.45,4.57h21.76c4.91,0,8.88-4.48,8.88-10V10C177.53,4.48,173.56,0,168.65,0Z"/><path class="cls-4" d="M251.89,133.75a3.77,3.77,0,0,1-2.82-1,5.13,5.13,0,0,1-1.38-2.58L233.41,53.23a2.58,2.58,0,0,0-.06-.6,1.48,1.48,0,0,1-.06-.36,2.35,2.35,0,0,1,.78-1.8,2.51,2.51,0,0,1,1.74-.72h10.56c2,0,3.12.81,3.36,2.4l10,54.36,10.8-35.16a6.65,6.65,0,0,1,1.26-2,3.45,3.45,0,0,1,2.7-1h6.48a3.41,3.41,0,0,1,2.76,1,5.21,5.21,0,0,1,1.08,2l10.92,35,10-54.24c.24-1.59,1.36-2.4,3.36-2.4h10.56a2.3,2.3,0,0,1,1.68.72,2.44,2.44,0,0,1,.72,1.8v.36a1.92,1.92,0,0,1-.12.6l-14.28,76.92a4.29,4.29,0,0,1-1.32,2.58,4,4,0,0,1-2.88,1h-8a3.91,3.91,0,0,1-2.82-1,4.94,4.94,0,0,1-1.38-2L277.69,90.67l-13.44,40.08a6.68,6.68,0,0,1-1.44,2,3.87,3.87,0,0,1-2.88,1Z"/><path class="cls-4" d="M334,133.75a2.85,2.85,0,0,1-2.88-2.87V51.43A2.87,2.87,0,0,1,334,48.55h10.68a2.76,2.76,0,0,1,2.1.84,2.92,2.92,0,0,1,.78,2V78.79a25.53,25.53,0,0,1,7.92-6.24A25.18,25.18,0,0,1,367,70.15a24.23,24.23,0,0,1,12.78,3.3,22.24,22.24,0,0,1,8.46,9.3,32,32,0,0,1,3,14.4v33.73a2.85,2.85,0,0,1-2.88,2.87h-10.8a2.85,2.85,0,0,1-2.88-2.87v-33q0-7-3.42-10.93t-9.9-4a13.21,13.21,0,0,0-10,4q-3.78,4-3.78,10.93v33a2.91,2.91,0,0,1-.78,2,2.72,2.72,0,0,1-2.1.83Z"/><path class="cls-4" d="M429.73,135q-13.32,0-21.12-7.69t-8.4-21.84c-.08-.79-.12-1.81-.12-3.05a28.27,28.27,0,0,1,.12-2.95,35.69,35.69,0,0,1,4.14-15.6,25.37,25.37,0,0,1,10.14-10.14,31.42,31.42,0,0,1,15.24-3.54q9.72,0,16.32,4a25.56,25.56,0,0,1,10,11.16,38.39,38.39,0,0,1,3.36,16.51v2.51a2.75,2.75,0,0,1-.84,2,2.89,2.89,0,0,1-2.16.84H416.53v1a21.13,21.13,0,0,0,1.62,7.74,13.4,13.4,0,0,0,4.44,5.7,11.53,11.53,0,0,0,7,2.16,13.64,13.64,0,0,0,5.64-1,13.33,13.33,0,0,0,3.72-2.34,14.33,14.33,0,0,0,2-2.16,5.84,5.84,0,0,1,1.74-1.74,5.2,5.2,0,0,1,2-.3h10.32a2.77,2.77,0,0,1,2,.73,2,2,0,0,1,.66,1.79,10,10,0,0,1-2,4.68,23.2,23.2,0,0,1-5.34,5.41,29.74,29.74,0,0,1-8.7,4.37A37.7,37.7,0,0,1,429.73,135Zm-13.2-37.81h26.52v-.36a19.83,19.83,0,0,0-1.56-8.16,13,13,0,0,0-4.56-5.52A12.7,12.7,0,0,0,418,88.63a20.52,20.52,0,0,0-1.5,8.16Z"/><path class="cls-4" d="M495.37,135q-13.32,0-21.12-7.69t-8.4-21.84c-.08-.79-.12-1.81-.12-3.05a28.27,28.27,0,0,1,.12-2.95A35.69,35.69,0,0,1,470,83.83a25.37,25.37,0,0,1,10.14-10.14,31.42,31.42,0,0,1,15.24-3.54q9.72,0,16.32,4a25.56,25.56,0,0,1,10,11.16A38.39,38.39,0,0,1,525,101.84v2.51a2.75,2.75,0,0,1-.84,2,2.89,2.89,0,0,1-2.16.84H482.17v1a21.13,21.13,0,0,0,1.62,7.74,13.4,13.4,0,0,0,4.44,5.7,11.53,11.53,0,0,0,7,2.16,13.64,13.64,0,0,0,5.64-1,13.33,13.33,0,0,0,3.72-2.34,14.33,14.33,0,0,0,2-2.16,5.84,5.84,0,0,1,1.74-1.74,5.2,5.2,0,0,1,2-.3h10.32a2.77,2.77,0,0,1,2,.73,2,2,0,0,1,.66,1.79,10,10,0,0,1-2,4.68,23.2,23.2,0,0,1-5.34,5.41,29.74,29.74,0,0,1-8.7,4.37A37.7,37.7,0,0,1,495.37,135Zm-13.2-37.81h26.52v-.36a19.83,19.83,0,0,0-1.56-8.16,13,13,0,0,0-4.56-5.52,12.7,12.7,0,0,0-18.9,5.52,20.52,20.52,0,0,0-1.5,8.16Z"/><path class="cls-4" d="M537.13,133.75a2.85,2.85,0,0,1-2.88-2.87V51.43a2.87,2.87,0,0,1,2.88-2.88h10A2.87,2.87,0,0,1,550,51.43v79.45a2.85,2.85,0,0,1-2.88,2.87Z"/><path class="cls-4" d="M590.53,133.75a26.26,26.26,0,0,1-12.12-2.52,16,16,0,0,1-7.32-7.5,28.47,28.47,0,0,1-2.4-12.42V84.07h-9.48a2.78,2.78,0,0,1-2-.84,2.75,2.75,0,0,1-.84-2v-7a2.87,2.87,0,0,1,2.88-2.88h9.48V51.43a2.92,2.92,0,0,1,.78-2,2.76,2.76,0,0,1,2.1-.84h9.72a2.87,2.87,0,0,1,2.88,2.88V71.35h15a2.87,2.87,0,0,1,2.88,2.88v7a2.75,2.75,0,0,1-.84,2,2.78,2.78,0,0,1-2,.84h-15v26q0,4.94,1.74,7.68c1.16,1.85,3.18,2.76,6.06,2.76h8.28a2.87,2.87,0,0,1,2.88,2.88v7.45a2.85,2.85,0,0,1-2.88,2.87Z"/><path class="cls-4" d="M637.09,135q-13.32,0-21.12-7.69t-8.4-21.84c-.08-.79-.12-1.81-.12-3.05a28.27,28.27,0,0,1,.12-2.95,35.69,35.69,0,0,1,4.14-15.6,25.37,25.37,0,0,1,10.14-10.14,31.42,31.42,0,0,1,15.24-3.54q9.72,0,16.32,4a25.56,25.56,0,0,1,10,11.16,38.54,38.54,0,0,1,3.36,16.51v2.51a2.75,2.75,0,0,1-.84,2,2.89,2.89,0,0,1-2.16.84H623.89v1a21.13,21.13,0,0,0,1.62,7.74,13.4,13.4,0,0,0,4.44,5.7,11.53,11.53,0,0,0,7,2.16,13.64,13.64,0,0,0,5.64-1,13.33,13.33,0,0,0,3.72-2.34,14.33,14.33,0,0,0,2-2.16,5.84,5.84,0,0,1,1.74-1.74,5.2,5.2,0,0,1,2-.3h10.32a2.77,2.77,0,0,1,2,.73,2,2,0,0,1,.66,1.79,10,10,0,0,1-2,4.68,23.2,23.2,0,0,1-5.34,5.41,29.74,29.74,0,0,1-8.7,4.37A37.7,37.7,0,0,1,637.09,135Zm-13.2-37.81h26.52v-.36a19.83,19.83,0,0,0-1.56-8.16,13,13,0,0,0-4.56-5.52,12.7,12.7,0,0,0-18.9,5.52,20.52,20.52,0,0,0-1.5,8.16Z"/><path class="cls-4" d="M678.73,133.75a2.85,2.85,0,0,1-2.88-2.87V74.35a2.9,2.9,0,0,1,.84-2.16,2.78,2.78,0,0,1,2-.84h9.71a3.07,3.07,0,0,1,2.11.84,2.83,2.83,0,0,1,.89,2.16v4.92a18,18,0,0,1,7.15-5.88,23.9,23.9,0,0,1,10.14-2h4.92a2.79,2.79,0,0,1,2.1.84,2.9,2.9,0,0,1,.77,2v8.64a2.86,2.86,0,0,1-.77,2,2.72,2.72,0,0,1-2.1.84h-9.36q-5.77,0-8.94,3.24t-3.18,8.89v33a2.83,2.83,0,0,1-.84,2,2.93,2.93,0,0,1-2.16.83Z"/></g></g></svg>