<svg xmlns="http://www.w3.org/2000/svg" viewBox="0 0 177.53 182.77"><defs><style>.cls-1{fill:#6500e6;}.cls-2{fill:#4e00b4;}.cls-3{fill:#9b4cff;}</style></defs><g id="Layer_2" data-name="Layer 2"><g id="Layer_2-2" data-name="Layer 2"><path class="cls-1" d="M32.51,182.44c-.16,0-.33.06-.49.09A4.21,4.21,0,0,0,32.51,182.44Z"/><path class="cls-1" d="M.05,173.5c.34,4.58,3.4,8.27,7.36,9C3.28,181.69.45,177.8.05,173.5Z"/><path class="cls-1" d="M39.53,115.74V10c0-5.52-4-10-8.88-10H8.89C4,0,0,4.48,0,10V171.94a10.83,10.83,0,0,1,2.12-6Z"/><path class="cls-1" d="M32.6,182.42A8.83,8.83,0,0,0,37.54,179l0,.06A9,9,0,0,1,32.6,182.42Z"/><path class="cls-1" d="M8.06,182.62l-.18,0Z"/><path class="cls-2" d="M138,115.72,106.56,73.51a9.59,9.59,0,0,0-1.51-1.6,11.08,11.08,0,0,1,1.37,14.62L88.78,110.21l50.66,68a10.88,10.88,0,0,1-1.43-5.43Z"/><path class="cls-3" d="M105.05,71.91a8.29,8.29,0,0,0-5.57-2.13H78a8.68,8.68,0,0,0-6.94,3.64L39.53,115.74,2.13,165.93a10.83,10.83,0,0,0-2.12,6,11.57,11.57,0,0,0,0,1.56c.4,4.3,3.23,8.19,7.36,9l.47.08.18,0a8.31,8.31,0,0,0,1,.06H30.55a8,8,0,0,0,1.47-.15c.16,0,.33-.05.49-.09l.09,0A9,9,0,0,0,37.49,179l0-.06,51.24-68.77,17.64-23.68A11.08,11.08,0,0,0,105.05,71.91Z"/><path class="cls-1" d="M168.65,0H146.89C142,0,138,4.48,138,10V172.77a10.88,10.88,0,0,0,1.43,5.43,8.67,8.67,0,0,0,7.45,4.57h21.76c4.91,0,8.88-4.48,8.88-10V10C177.53,4.48,173.56,0,168.65,0Z"/></g></g></svg>