<svg xmlns="http://www.w3.org/2000/svg" viewBox="0 0 199.93 182.77"><defs><style>.cls-1{fill:#6f00ff;}.cls-2{fill:#3f00a3;}.cls-3{fill:#9b00ff;}</style></defs><g id="Layer_2" data-name="Layer 2"><g id="Layer_2-2" data-name="Layer 2"><rect class="cls-1" x="0.02" width="44.51" height="182.67" rx="10"/><path class="cls-2" d="M196.68,164.89,120,73.51a10.17,10.17,0,0,0-7.81-3.64H88a10.19,10.19,0,0,0-7.81,16.75l77.62,92.51a10.2,10.2,0,0,0,7.81,3.64h22.72A10.88,10.88,0,0,0,196.68,164.89Z"/><path class="cls-3" d="M80,73.42,2.4,165.93a10.2,10.2,0,0,0,7.82,16.75H34.41A10.18,10.18,0,0,0,42.22,179l77.63-92.51A10.2,10.2,0,0,0,112,69.78H87.84A10.2,10.2,0,0,0,80,73.42Z"/><rect class="cls-1" x="155.42" width="44.51" height="182.77" rx="9.97"/></g></g></svg>